<svg xmlns="http://www.w3.org/2000/svg" xmlns:xlink="http://www.w3.org/1999/xlink" height="1333.333" width="1333.333"><style><![CDATA[.B{fill:#542d17}.C{fill:#d6eff9}.D{fill:#f8cbb2}.E{fill:#ee747c}.F{fill:#f9c2e3}]]></style><defs><clipPath id="A"><path d="M0 1000h1000V0H0z"/></clipPath><clipPath id="B"><path d="M0 1000h1000V0H0z"/></clipPath><path id="C" d="M17.324 1000c0 7.18-5.82 13-13 13s-13-5.82-13-13 5.82-13 13-13 13 5.82 13 13"/><path id="D" d="M397.27 146.537a15.18 15.18 0 0 1-15.176 15.176 15.18 15.18 0 0 1-15.176-15.176 15.18 15.18 0 0 1 15.176-15.176 15.18 15.18 0 0 1 15.176 15.176"/><path id="E" d="M733.93 819.895h-19.223a2 2 0 0 0-2 2v3.344a2 2 0 0 0 2 2h19.223a2 2 0 0 0 2-2v-3.344a2 2 0 0 0-2-2"/><path id="F" d="M733.93 806.97H721.68a2 2 0 0 0-2 2v3.344a2 2 0 0 0 2 2h12.252a2 2 0 0 0 2-2v-3.344a2 2 0 0 0-2-2"/></defs><g transform="matrix(1.333333 0 0 -1.333333 0 1333.3333)"><path d="M0 0h1000v1000H0z" class="F"/><g clip-path="url(#A)" fill="#feecf4"><use xlink:href="#C"/><path d="M100.324 1000c0 7.18-5.82 13-13 13s-13-5.82-13-13 5.82-13 13-13 13 5.82 13 13m83 0c0 7.18-5.82 13-13 13s-13-5.82-13-13 5.82-13 13-13 13 5.82 13 13m83 0c0 7.18-5.82 13-13 13s-13-5.82-13-13 5.82-13 13-13 13 5.82 13 13m83 0c0 7.18-5.82 13-13 13s-13-5.82-13-13 5.82-13 13-13 13 5.82 13 13m83 0c0 7.18-5.82 13-13 13s-13-5.82-13-13 5.82-13 13-13 13 5.82 13 13m83 0c0 7.18-5.82 13-13 13s-13-5.82-13-13 5.82-13 13-13 13 5.82 13 13m83 0c0 7.18-5.82 13-13 13s-13-5.82-13-13 5.82-13 13-13 13 5.82 13 13m83 0c0 7.18-5.82 13-13 13s-13-5.82-13-13 5.82-13 13-13 13 5.82 13 13m83 0c0 7.18-5.82 13-13 13s-13-5.82-13-13 5.82-13 13-13 13 5.82 13 13m83 0c0 7.18-5.82 13-13 13s-13-5.82-13-13 5.82-13 13-13 13 5.82 13 13m83 0c0 7.18-5.82 13-13 13s-13-5.82-13-13 5.82-13 13-13 13 5.82 13 13m83 0c0 7.18-5.82 13-13 13s-13-5.82-13-13 5.82-13 13-13 13 5.82 13 13M60 927c0 7.18-5.82 13-13 13s-13-5.82-13-13 5.82-13 13-13 13 5.82 13 13m83 0c0 7.18-5.82 13-13 13s-13-5.82-13-13 5.82-13 13-13 13 5.82 13 13m83 0c0 7.18-5.82 13-13 13s-13-5.82-13-13 5.82-13 13-13 13 5.82 13 13m83 0c0 7.18-5.82 13-13 13s-13-5.82-13-13 5.82-13 13-13 13 5.82 13 13m83 0c0 7.18-5.82 13-13 13s-13-5.82-13-13 5.82-13 13-13 13 5.82 13 13m83 0c0 7.18-5.82 13-13 13s-13-5.82-13-13 5.82-13 13-13 13 5.82 13 13m83 0c0 7.18-5.82 13-13 13s-13-5.82-13-13 5.82-13 13-13 13 5.82 13 13m83 0c0 7.18-5.82 13-13 13s-13-5.82-13-13 5.82-13 13-13 13 5.82 13 13m83 0c0 7.18-5.82 13-13 13s-13-5.82-13-13 5.82-13 13-13 13 5.82 13 13m83 0c0 7.18-5.82 13-13 13s-13-5.82-13-13 5.82-13 13-13 13 5.82 13 13m83 0c0 7.18-5.82 13-13 13s-13-5.82-13-13 5.82-13 13-13 13 5.82 13 13m83 0c0 7.18-5.82 13-13 13s-13-5.82-13-13 5.82-13 13-13 13 5.82 13 13M16.58 854c0 7.18-5.82 13-13 13s-13-5.82-13-13 5.82-13 13-13 13 5.82 13 13m83 0c0 7.18-5.82 13-13 13s-13-5.82-13-13 5.82-13 13-13 13 5.82 13 13m83 0c0 7.18-5.82 13-13 13s-13-5.82-13-13 5.82-13 13-13 13 5.82 13 13m83 0c0 7.18-5.82 13-13 13s-13-5.82-13-13 5.82-13 13-13 13 5.82 13 13m83 0c0 7.18-5.82 13-13 13s-13-5.82-13-13 5.82-13 13-13 13 5.82 13 13m83 0c0 7.18-5.82 13-13 13s-13-5.82-13-13 5.82-13 13-13 13 5.82 13 13m83 0c0 7.18-5.82 13-13 13s-13-5.82-13-13 5.82-13 13-13 13 5.82 13 13m83 0c0 7.18-5.82 13-13 13s-13-5.82-13-13 5.82-13 13-13 13 5.82 13 13m83 0c0 7.18-5.82 13-13 13s-13-5.82-13-13 5.82-13 13-13 13 5.82 13 13m83 0c0 7.18-5.82 13-13 13s-13-5.82-13-13 5.82-13 13-13 13 5.82 13 13m83 0c0 7.18-5.82 13-13 13s-13-5.82-13-13 5.82-13 13-13 13 5.82 13 13m83 0c0 7.18-5.82 13-13 13s-13-5.82-13-13 5.82-13 13-13 13 5.82 13 13m83 0c0 7.18-5.82 13-13 13s-13-5.82-13-13 5.82-13 13-13 13 5.82 13 13M60 781c0 7.18-5.82 13-13 13s-13-5.82-13-13 5.82-13 13-13 13 5.82 13 13m83 0c0 7.18-5.82 13-13 13s-13-5.82-13-13 5.82-13 13-13 13 5.82 13 13m83 0c0 7.18-5.82 13-13 13s-13-5.82-13-13 5.82-13 13-13 13 5.82 13 13m83 0c0 7.18-5.82 13-13 13s-13-5.82-13-13 5.82-13 13-13 13 5.82 13 13m83 0c0 7.18-5.82 13-13 13s-13-5.82-13-13 5.82-13 13-13 13 5.82 13 13m83 0c0 7.18-5.82 13-13 13s-13-5.82-13-13 5.82-13 13-13 13 5.82 13 13m83 0c0 7.18-5.82 13-13 13s-13-5.82-13-13 5.82-13 13-13 13 5.82 13 13m83 0c0 7.18-5.82 13-13 13s-13-5.82-13-13 5.82-13 13-13 13 5.82 13 13m83 0c0 7.18-5.82 13-13 13s-13-5.82-13-13 5.82-13 13-13 13 5.82 13 13m83 0c0 7.18-5.82 13-13 13s-13-5.82-13-13 5.82-13 13-13 13 5.82 13 13m83 0c0 7.18-5.82 13-13 13s-13-5.82-13-13 5.82-13 13-13 13 5.82 13 13m83 0c0 7.18-5.82 13-13 13s-13-5.82-13-13 5.82-13 13-13 13 5.82 13 13M17.324 708c0 7.18-5.82 13-13 13s-13-5.82-13-13 5.82-13 13-13 13 5.82 13 13m83 0c0 7.18-5.82 13-13 13s-13-5.82-13-13 5.82-13 13-13 13 5.82 13 13m83 0c0 7.18-5.82 13-13 13s-13-5.82-13-13 5.82-13 13-13 13 5.82 13 13m83 0c0 7.18-5.82 13-13 13s-13-5.82-13-13 5.82-13 13-13 13 5.82 13 13m83 0c0 7.18-5.82 13-13 13s-13-5.82-13-13 5.82-13 13-13 13 5.82 13 13m83 0c0 7.18-5.82 13-13 13s-13-5.82-13-13 5.82-13 13-13 13 5.82 13 13m83 0c0 7.18-5.82 13-13 13s-13-5.82-13-13 5.82-13 13-13 13 5.82 13 13m83 0c0 7.18-5.82 13-13 13s-13-5.82-13-13 5.82-13 13-13 13 5.82 13 13m83 0c0 7.18-5.82 13-13 13s-13-5.82-13-13 5.82-13 13-13 13 5.82 13 13m83 0c0 7.18-5.82 13-13 13s-13-5.82-13-13 5.82-13 13-13 13 5.82 13 13m83 0c0 7.18-5.82 13-13 13s-13-5.82-13-13 5.82-13 13-13 13 5.82 13 13m83 0c0 7.18-5.82 13-13 13s-13-5.82-13-13 5.82-13 13-13 13 5.82 13 13m83 0c0 7.18-5.82 13-13 13s-13-5.82-13-13 5.82-13 13-13 13 5.82 13 13M60 635c0 7.18-5.82 13-13 13s-13-5.82-13-13 5.82-13 13-13 13 5.82 13 13m83 0c0 7.18-5.82 13-13 13s-13-5.82-13-13 5.82-13 13-13 13 5.82 13 13m83 0c0 7.18-5.82 13-13 13s-13-5.82-13-13 5.82-13 13-13 13 5.82 13 13m83 0c0 7.18-5.82 13-13 13s-13-5.82-13-13 5.82-13 13-13 13 5.82 13 13m83 0c0 7.18-5.82 13-13 13s-13-5.82-13-13 5.82-13 13-13 13 5.82 13 13m83 0c0 7.18-5.82 13-13 13s-13-5.82-13-13 5.82-13 13-13 13 5.82 13 13m83 0c0 7.18-5.82 13-13 13s-13-5.82-13-13 5.82-13 13-13 13 5.82 13 13m83 0c0 7.18-5.82 13-13 13s-13-5.82-13-13 5.82-13 13-13 13 5.82 13 13m83 0c0 7.18-5.82 13-13 13s-13-5.82-13-13 5.82-13 13-13 13 5.82 13 13m83 0c0 7.18-5.82 13-13 13s-13-5.82-13-13 5.82-13 13-13 13 5.82 13 13m83 0c0 7.18-5.82 13-13 13s-13-5.82-13-13 5.82-13 13-13 13 5.82 13 13m83 0c0 7.18-5.82 13-13 13s-13-5.82-13-13 5.82-13 13-13 13 5.82 13 13M17.324 562c0 7.18-5.82 13-13 13s-13-5.82-13-13 5.82-13 13-13 13 5.82 13 13m83 0c0 7.18-5.82 13-13 13s-13-5.82-13-13 5.82-13 13-13 13 5.82 13 13m83 0c0 7.18-5.82 13-13 13s-13-5.82-13-13 5.82-13 13-13 13 5.82 13 13m83 0c0 7.18-5.82 13-13 13s-13-5.82-13-13 5.82-13 13-13 13 5.82 13 13m83 0c0 7.18-5.82 13-13 13s-13-5.82-13-13 5.82-13 13-13 13 5.82 13 13m83 0c0 7.18-5.82 13-13 13s-13-5.82-13-13 5.82-13 13-13 13 5.82 13 13m83 0c0 7.18-5.82 13-13 13s-13-5.82-13-13 5.82-13 13-13 13 5.82 13 13m83 0c0 7.18-5.82 13-13 13s-13-5.82-13-13 5.82-13 13-13 13 5.82 13 13m83 0c0 7.18-5.82 13-13 13s-13-5.82-13-13 5.82-13 13-13 13 5.82 13 13m83 0c0 7.18-5.82 13-13 13s-13-5.82-13-13 5.82-13 13-13 13 5.82 13 13m83 0c0 7.18-5.82 13-13 13s-13-5.82-13-13 5.82-13 13-13 13 5.82 13 13m83 0c0 7.18-5.82 13-13 13s-13-5.82-13-13 5.82-13 13-13 13 5.82 13 13m83 0c0 7.18-5.82 13-13 13s-13-5.82-13-13 5.82-13 13-13 13 5.82 13 13M60 489c0 7.18-5.82 13-13 13s-13-5.82-13-13 5.82-13 13-13 13 5.82 13 13m83 0c0 7.18-5.82 13-13 13s-13-5.82-13-13 5.82-13 13-13 13 5.82 13 13m83 0c0 7.18-5.82 13-13 13s-13-5.82-13-13 5.82-13 13-13 13 5.82 13 13m83 0c0 7.18-5.82 13-13 13s-13-5.82-13-13 5.82-13 13-13 13 5.82 13 13m83 0c0 7.18-5.82 13-13 13s-13-5.82-13-13 5.82-13 13-13 13 5.82 13 13m83 0c0 7.18-5.82 13-13 13s-13-5.82-13-13 5.82-13 13-13 13 5.82 13 13m83 0c0 7.18-5.82 13-13 13s-13-5.82-13-13 5.82-13 13-13 13 5.82 13 13m83 0c0 7.18-5.82 13-13 13s-13-5.82-13-13 5.82-13 13-13 13 5.82 13 13m83 0c0 7.18-5.82 13-13 13s-13-5.82-13-13 5.82-13 13-13 13 5.82 13 13m83 0c0 7.18-5.82 13-13 13s-13-5.82-13-13 5.82-13 13-13 13 5.82 13 13m83 0c0 7.18-5.82 13-13 13s-13-5.82-13-13 5.82-13 13-13 13 5.82 13 13m83 0c0 7.18-5.82 13-13 13s-13-5.82-13-13 5.82-13 13-13 13 5.82 13 13M17.324 416c0 7.18-5.82 13-13 13s-13-5.82-13-13 5.82-13 13-13 13 5.82 13 13"/><path d="M100.324 416c0 7.18-5.82 13-13 13s-13-5.82-13-13 5.82-13 13-13 13 5.82 13 13m83 0c0 7.18-5.82 13-13 13s-13-5.82-13-13 5.82-13 13-13 13 5.82 13 13m83 0c0 7.18-5.82 13-13 13s-13-5.82-13-13 5.82-13 13-13 13 5.82 13 13m83 0c0 7.18-5.82 13-13 13s-13-5.82-13-13 5.82-13 13-13 13 5.82 13 13m83 0c0 7.18-5.82 13-13 13s-13-5.82-13-13 5.82-13 13-13 13 5.82 13 13m83 0c0 7.18-5.82 13-13 13s-13-5.82-13-13 5.82-13 13-13 13 5.82 13 13m83 0c0 7.18-5.82 13-13 13s-13-5.82-13-13 5.82-13 13-13 13 5.82 13 13m83 0c0 7.18-5.82 13-13 13s-13-5.82-13-13 5.82-13 13-13 13 5.82 13 13m83 0c0 7.18-5.82 13-13 13s-13-5.82-13-13 5.82-13 13-13 13 5.82 13 13m83 0c0 7.18-5.82 13-13 13s-13-5.82-13-13 5.82-13 13-13 13 5.82 13 13m83 0c0 7.18-5.82 13-13 13s-13-5.82-13-13 5.82-13 13-13 13 5.82 13 13m83 0c0 7.18-5.82 13-13 13s-13-5.82-13-13 5.82-13 13-13 13 5.82 13 13M60 343c0 7.18-5.82 13-13 13s-13-5.82-13-13 5.82-13 13-13 13 5.82 13 13m83 0c0 7.18-5.82 13-13 13s-13-5.82-13-13 5.82-13 13-13 13 5.82 13 13m83 0c0 7.18-5.82 13-13 13s-13-5.82-13-13 5.82-13 13-13 13 5.82 13 13m83 0c0 7.18-5.82 13-13 13s-13-5.82-13-13 5.82-13 13-13 13 5.82 13 13m83 0c0 7.18-5.82 13-13 13s-13-5.82-13-13 5.82-13 13-13 13 5.82 13 13m83 0c0 7.18-5.82 13-13 13s-13-5.82-13-13 5.82-13 13-13 13 5.82 13 13m83 0c0 7.18-5.82 13-13 13s-13-5.82-13-13 5.82-13 13-13 13 5.82 13 13m83 0c0 7.18-5.82 13-13 13s-13-5.82-13-13 5.82-13 13-13 13 5.82 13 13m83 0c0 7.18-5.82 13-13 13s-13-5.82-13-13 5.82-13 13-13 13 5.82 13 13m83 0c0 7.18-5.82 13-13 13s-13-5.82-13-13 5.82-13 13-13 13 5.82 13 13m83 0c0 7.18-5.82 13-13 13s-13-5.82-13-13 5.82-13 13-13 13 5.82 13 13m83 0c0 7.18-5.82 13-13 13s-13-5.82-13-13 5.82-13 13-13 13 5.82 13 13M17.324 270c0 7.18-5.82 13-13 13s-13-5.82-13-13 5.82-13 13-13 13 5.82 13 13m83 0c0 7.18-5.82 13-13 13s-13-5.82-13-13 5.82-13 13-13 13 5.82 13 13m83 0c0 7.18-5.82 13-13 13s-13-5.82-13-13 5.82-13 13-13 13 5.82 13 13m83 0c0 7.18-5.82 13-13 13s-13-5.82-13-13 5.82-13 13-13 13 5.82 13 13m83 0c0 7.18-5.82 13-13 13s-13-5.82-13-13 5.82-13 13-13 13 5.82 13 13m83 0c0 7.18-5.82 13-13 13s-13-5.82-13-13 5.82-13 13-13 13 5.82 13 13m83 0c0 7.18-5.82 13-13 13s-13-5.82-13-13 5.82-13 13-13 13 5.82 13 13m83 0c0 7.18-5.82 13-13 13s-13-5.82-13-13 5.82-13 13-13 13 5.82 13 13m83 0c0 7.18-5.82 13-13 13s-13-5.82-13-13 5.82-13 13-13 13 5.82 13 13m83 0c0 7.18-5.82 13-13 13s-13-5.82-13-13 5.82-13 13-13 13 5.82 13 13m83 0c0 7.18-5.82 13-13 13s-13-5.82-13-13 5.82-13 13-13 13 5.82 13 13m83 0c0 7.18-5.82 13-13 13s-13-5.82-13-13 5.82-13 13-13 13 5.82 13 13m83 0c0 7.18-5.82 13-13 13s-13-5.82-13-13 5.82-13 13-13 13 5.82 13 13M60 197c0 7.18-5.82 13-13 13s-13-5.82-13-13 5.82-13 13-13 13 5.82 13 13m83 0c0 7.18-5.82 13-13 13s-13-5.82-13-13 5.82-13 13-13 13 5.82 13 13m83 0c0 7.18-5.82 13-13 13s-13-5.82-13-13 5.82-13 13-13 13 5.82 13 13m83 0c0 7.18-5.82 13-13 13s-13-5.82-13-13 5.82-13 13-13 13 5.82 13 13m83 0c0 7.18-5.82 13-13 13s-13-5.82-13-13 5.82-13 13-13 13 5.82 13 13m83 0c0 7.18-5.82 13-13 13s-13-5.82-13-13 5.82-13 13-13 13 5.82 13 13m83 0c0 7.18-5.82 13-13 13s-13-5.82-13-13 5.82-13 13-13 13 5.82 13 13m83 0c0 7.18-5.82 13-13 13s-13-5.82-13-13 5.82-13 13-13 13 5.82 13 13m83 0c0 7.18-5.82 13-13 13s-13-5.82-13-13 5.82-13 13-13 13 5.82 13 13m83 0c0 7.18-5.82 13-13 13s-13-5.82-13-13 5.82-13 13-13 13 5.82 13 13m83 0c0 7.18-5.82 13-13 13s-13-5.82-13-13 5.82-13 13-13 13 5.82 13 13m83 0c0 7.18-5.82 13-13 13s-13-5.82-13-13 5.82-13 13-13 13 5.82 13 13M17.324 124c0 7.18-5.82 13-13 13s-13-5.82-13-13 5.82-13 13-13 13 5.82 13 13m83 0c0 7.18-5.82 13-13 13s-13-5.82-13-13 5.82-13 13-13 13 5.82 13 13m83 0c0 7.18-5.82 13-13 13s-13-5.82-13-13 5.82-13 13-13 13 5.82 13 13m83 0c0 7.18-5.82 13-13 13s-13-5.82-13-13 5.82-13 13-13 13 5.82 13 13m83 0c0 7.18-5.82 13-13 13s-13-5.82-13-13 5.82-13 13-13 13 5.82 13 13m83 0c0 7.18-5.82 13-13 13s-13-5.82-13-13 5.82-13 13-13 13 5.82 13 13m83 0c0 7.18-5.82 13-13 13s-13-5.82-13-13 5.82-13 13-13 13 5.82 13 13m83 0c0 7.18-5.82 13-13 13s-13-5.82-13-13 5.82-13 13-13 13 5.82 13 13m83 0c0 7.18-5.82 13-13 13s-13-5.82-13-13 5.82-13 13-13 13 5.82 13 13m83 0c0 7.18-5.82 13-13 13s-13-5.82-13-13 5.82-13 13-13 13 5.82 13 13m83 0c0 7.18-5.82 13-13 13s-13-5.82-13-13 5.82-13 13-13 13 5.82 13 13m83 0c0 7.18-5.82 13-13 13s-13-5.82-13-13 5.82-13 13-13 13 5.82 13 13m83 0c0 7.18-5.82 13-13 13s-13-5.82-13-13 5.82-13 13-13 13 5.82 13 13M60 51c0 7.18-5.82 13-13 13s-13-5.82-13-13 5.82-13 13-13 13 5.82 13 13m83 0c0 7.18-5.82 13-13 13s-13-5.82-13-13 5.82-13 13-13 13 5.82 13 13m83 0c0 7.18-5.82 13-13 13s-13-5.82-13-13 5.82-13 13-13 13 5.82 13 13m83 0c0 7.18-5.82 13-13 13s-13-5.82-13-13 5.82-13 13-13 13 5.82 13 13m83 0c0 7.18-5.82 13-13 13s-13-5.82-13-13 5.82-13 13-13 13 5.82 13 13m83 0c0 7.18-5.82 13-13 13s-13-5.82-13-13 5.82-13 13-13 13 5.82 13 13m83 0c0 7.18-5.82 13-13 13s-13-5.82-13-13 5.82-13 13-13 13 5.82 13 13m83 0c0 7.18-5.82 13-13 13s-13-5.82-13-13 5.82-13 13-13 13 5.82 13 13m83 0c0 7.18-5.82 13-13 13s-13-5.82-13-13 5.82-13 13-13 13 5.82 13 13m83 0c0 7.18-5.82 13-13 13s-13-5.82-13-13 5.82-13 13-13 13 5.82 13 13m83 0c0 7.18-5.82 13-13 13s-13-5.82-13-13 5.82-13 13-13 13 5.82 13 13m83 0c0 7.18-5.82 13-13 13s-13-5.82-13-13 5.82-13 13-13 13 5.82 13 13"/></g><g clip-path="url(#B)"><path d="M610.865 408.485c0-16.943-13.734-30.68-30.678-30.68h-164.92c-16.943 0-30.678 13.736-30.678 30.68s13.735 30.68 30.678 30.68h164.92c16.944 0 30.678-13.736 30.678-30.68" fill="#cdc0a4"/><path d="M415.27 435.675c-14.993 0-27.2-12.197-27.2-27.2s12.197-27.2 27.2-27.2h164.92c14.992 0 27.19 12.197 27.19 27.2s-12.197 27.2-27.19 27.2zm164.92-61.358H415.27c-18.84 0-34.168 15.327-34.168 34.168s15.327 34.168 34.168 34.168h164.92c18.84 0 34.168-15.328 34.168-34.168s-15.328-34.168-34.168-34.168" class="B"/><path d="M613.36 146.537c-4.342-4.342-11.383-4.342-15.727.002l-215.54 215.54c-4.343 4.343-4.343 11.384 0 15.727a11.12 11.12 0 0 0 15.726 0L613.36 162.264a11.12 11.12 0 0 0 0-15.727" class="E"/><path d="M389.956 377.574c-2.038 0-3.954-.794-5.396-2.235s-2.235-3.358-2.235-5.396.794-3.954 2.235-5.396l215.542-215.54c1.443-1.442 3.36-2.237 5.398-2.237s3.953.793 5.394 2.235c2.975 2.976 2.977 7.818 0 10.793L395.352 375.34a7.58 7.58 0 0 1-5.396 2.235M605.5 139.793a14.51 14.51 0 0 0-10.332 4.279l-215.54 215.54c-2.76 2.76-4.28 6.427-4.28 10.33a14.51 14.51 0 0 0 14.608 14.609c3.902 0 7.57-1.52 10.33-4.28L615.828 164.73a14.63 14.63 0 0 0 0-20.66c-2.76-2.758-6.428-4.277-10.328-4.277" class="B"/><path d="M382.095 146.537a11.12 11.12 0 0 1 15.726.002l215.54 215.54c4.343 4.343 4.343 11.384 0 15.727a11.12 11.12 0 0 1-15.725 0L382.094 162.264c-4.343-4.342-4.343-11.383.001-15.727" class="E"/><path d="M605.5 377.574a7.58 7.58 0 0 1-5.396-2.235L384.56 159.797c-2.976-2.975-2.975-7.817.001-10.793a7.58 7.58 0 0 1 10.791.002l215.542 215.54c1.44 1.442 2.236 3.358 2.236 5.396s-.795 3.954-2.236 5.396-3.358 2.235-5.395 2.235m-215.543-237.78c-3.902 0-7.57 1.52-10.33 4.277a14.63 14.63 0 0 0-.001 20.66L595.17 380.273a14.51 14.51 0 0 0 20.658 0 14.51 14.51 0 0 0 4.279-10.33c0-3.903-1.52-7.57-4.28-10.33l-215.54-215.54a14.51 14.51 0 0 0-10.33-4.279" class="B"/><path d="M365.037 388.876l-30.3 106.994c-1.57 5.54-6.853 9.018-12.39 8.512-.37.034-.746.057-1.125.057H269.94c-6.683 0-12.1-5.418-12.1-12.1s5.418-12.102 12.1-12.102h44.75l27.7-97.776c1.77-6.257 8.28-9.893 14.536-8.12s9.892 8.28 8.12 14.537" class="E"/><path d="M269.94 500.95c-4.75 0-8.613-3.864-8.613-8.612s3.863-8.613 8.613-8.613h44.75c1.56 0 2.932-1.037 3.356-2.538l27.7-97.777c1.006-3.55 4.28-6.03 7.966-6.03.76 0 1.52.106 2.263.316a8.23 8.23 0 0 1 5.715 10.229l-30.3 106.994a8.32 8.32 0 0 1-8.713 5.988 3.52 3.52 0 0 0-.641.001 8.88 8.88 0 0 1-.803.042zm83.762-130.548c-6.792 0-12.827 4.568-14.68 11.107l-26.97 95.238H269.94c-8.597 0-15.59 6.994-15.59 15.59s6.994 15.6 15.59 15.6h51.283c.36 0 .734-.016 1.134-.046.353.025.708.037 1.06.037 6.792 0 12.828-4.564 14.677-11.098l30.3-106.995a15.16 15.16 0 0 0-1.36-11.602c-1.99-3.56-5.244-6.13-9.166-7.242a15.3 15.3 0 0 0-4.165-.58" class="B"/><path d="M240.414 693.52c0 35.18-28.52 63.7-63.7 63.7s-63.7-28.52-63.7-63.7 28.52-63.7 63.7-63.7v-21.342h13.83v22.853c28.53 6.317 49.87 31.76 49.87 62.19" class="D"/><g class="B"><path d="M180.203 611.966h6.854v19.363a3.49 3.49 0 0 0 2.734 3.407c13.164 2.914 25.124 10.318 33.68 20.846 8.675 10.677 13.454 24.15 13.454 37.937 0 33.2-27 60.21-60.2 60.21s-60.212-27.01-60.212-60.21 27.01-60.21 60.212-60.21a3.49 3.49 0 0 0 3.488-3.489zm10.342-6.978h-13.83a3.49 3.49 0 0 0-3.49 3.489v17.943c-35.434 1.82-63.7 31.22-63.7 67.1 0 37.048 30.14 67.19 67.2 67.19s67.187-30.14 67.187-67.19c0-15.384-5.333-30.42-15.016-42.338-8.95-11.012-21.24-18.96-34.852-22.59v-20.113a3.49 3.49 0 0 0-3.489-3.489"/><path d="M217.273 644.448c-4.646 0-9.154 2.468-11.538 6.823a3.49 3.49 0 0 0 1.386 4.736 3.49 3.49 0 0 0 4.735-1.386 6.16 6.16 0 0 1 8.348-2.443 3.49 3.49 0 0 0 4.735-1.385 3.49 3.49 0 0 0-1.385-4.735c-1.995-1.092-4.152-1.6-6.28-1.6m1.916 37.455c0 3.83-3.104 6.934-6.934 6.934s-6.934-3.104-6.934-6.934 3.105-6.934 6.934-6.934 6.934 3.104 6.934 6.934"/></g><path d="M219.19 666.167c0-3.11-3.104-5.634-6.934-5.634s-6.934 2.523-6.934 5.634 3.105 5.633 6.934 5.633 6.934-2.522 6.934-5.633" fill="#e488a4"/><path d="M283.47 493.736a16.32 16.32 0 0 0-16.317-16.317h-18.63a16.32 16.32 0 0 0-16.318 16.317 16.32 16.32 0 0 0 16.318 16.318h18.63a16.32 16.32 0 0 0 16.317-16.318" class="D"/><path d="M248.523 506.565c-7.073 0-12.828-5.755-12.828-12.83s5.755-12.83 12.828-12.83h18.63c7.073 0 12.828 5.756 12.828 12.83s-5.755 12.83-12.828 12.83zm18.63-32.635h-18.63c-10.92 0-19.806 8.885-19.806 19.806s8.885 19.807 19.806 19.807h18.63c10.92 0 19.807-8.886 19.807-19.807s-8.886-19.806-19.807-19.806" class="B"/><path d="M225.876 420.296v141.316c0 18.85-10.744 34.964-25.934 41.526v25.193h-50.986V601.75h1.63c-13.64-7.27-23.034-22.508-23.034-40.137V420.296z" class="C"/><path d="M131.04 423.785h91.346v137.828c0 17.026-9.353 32.07-23.828 38.323a3.49 3.49 0 0 0-2.106 3.203v21.704h-44.008V604.7a3.49 3.49 0 0 0-.218-6.031c-13.07-6.965-21.186-21.164-21.186-37.057zm94.835-6.978h-98.324a3.49 3.49 0 0 0-3.489 3.489v141.317c0 17.037 8.108 32.445 21.404 41.154v25.564a3.49 3.49 0 0 0 3.489 3.489h50.986a3.49 3.49 0 0 0 3.489-3.489v-22.966c15.83-7.855 25.933-24.768 25.933-43.752V420.296a3.49 3.49 0 0 0-3.488-3.489" class="B"/><path d="M162.003 554.806c2.49-22.168 13.152-42.218 30.222-56.696 17.705-15.02 37.47-22.26 60.632-20.406l.276 32.143c-28.555-.334-53.603 17.474-58.567 44.96" class="C"/><path d="M245.754 473.927c-20.446 0-38.76 7.08-55.786 21.523-17.682 14.997-28.844 35.938-31.433 58.966a3.49 3.49 0 0 0 3.078 3.857c1.92.217 3.64-1.163 3.857-3.077 2.388-21.254 12.69-40.582 29.01-54.425 16.7-14.165 34.7-20.664 54.915-19.785l.217 25.42c-13.507.532-26.424 4.98-36.705 12.697-11.684 8.772-19.214 20.903-21.776 35.082a3.49 3.49 0 0 0 2.813 4.054 3.49 3.49 0 0 0 4.054-2.814c4.536-25.108 27.21-42.413 55.093-42.09.935.026 1.84-.355 2.504-1.017a3.49 3.49 0 0 0 1.025-2.501l-.275-32.142a3.49 3.49 0 0 0-3.211-3.449c-2.49-.2-4.95-.3-7.38-.3" class="B"/><path d="M176.715 757.22c-35.182 0-63.7-28.52-63.7-63.7v-96.295h63.7v96.295h63.7c0 35.18-28.52 63.7-63.7 63.7" class="E"/><path d="M116.503 600.713h56.723v92.806a3.49 3.49 0 0 0 3.489 3.489h60.1c-1.813 31.583-28.082 56.723-60.1 56.723-33.2 0-60.212-27.01-60.212-60.212zm60.212-6.978h-63.7a3.49 3.49 0 0 0-3.489 3.489v96.295c0 37.048 30.14 67.19 67.2 67.19s67.187-30.14 67.187-67.19a3.49 3.49 0 0 0-3.488-3.489h-60.21v-92.806a3.49 3.49 0 0 0-3.488-3.489" class="B"/><path d="M184.086 685.397c-8.143 0-14.743-6.6-14.743-14.743s6.6-14.743 14.743-14.743" class="D"/><path d="M184.086 652.422c-10.054 0-18.232 8.18-18.232 18.23s8.178 18.232 18.232 18.232a3.49 3.49 0 0 0 3.488-3.488 3.49 3.49 0 0 0-3.488-3.489 11.27 11.27 0 0 1-11.255-11.255 11.27 11.27 0 0 1 11.255-11.253 3.49 3.49 0 0 0 3.488-3.489 3.49 3.49 0 0 0-3.488-3.489" class="B"/><path d="M197.597 163.107H155.83l-28.28 257.188h98.324z" fill="#616c94"/><path d="M158.957 166.596h35.514l27.51 250.21h-90.537zm38.64-6.98H155.83c-1.78 0-3.273 1.34-3.47 3.108l-28.278 257.2a3.49 3.49 0 0 0 3.468 3.87h98.324c.99 0 1.936-.422 2.6-1.16s.977-1.724.87-2.7l-28.28-257.2a3.49 3.49 0 0 0-3.468-3.108" class="B"/><path d="M197.257 140.664H155.83v22.443h41.426z" class="D"/><path d="M159.32 144.152h34.448v15.465H159.32zm37.938-6.976H155.83a3.49 3.49 0 0 0-3.489 3.488v22.443a3.49 3.49 0 0 0 3.489 3.489h41.426a3.49 3.49 0 0 0 3.488-3.489v-22.443a3.49 3.49 0 0 0-3.488-3.488" class="B"/><path d="M221.69 143.28h-65.86v-34.287h65.86c9.468 0 17.143 7.676 17.143 17.144s-7.675 17.143-17.143 17.143" fill="#fff"/><path d="M159.32 112.482h62.372c7.528 0 13.653 6.127 13.653 13.656s-6.125 13.655-13.653 13.655H159.32zm62.372-6.977h-65.86a3.49 3.49 0 0 0-3.49 3.489v34.287a3.49 3.49 0 0 0 3.49 3.488h65.86c11.376 0 20.63-9.256 20.63-20.63s-9.255-20.633-20.63-20.633" class="B"/><path d="M401.02 320.527h193.416c37.387 0 67.693 47.75 67.693 85.138H333.327c0-37.387 30.306-85.138 67.693-85.138" class="C"/><path d="M336.903 402.177c.854-17.003 7.842-35.82 19.058-51.03 12.902-17.494 28.904-27.13 45.058-27.13h193.416c16.155 0 32.156 9.637 45.06 27.13 11.217 15.208 18.203 34.027 19.058 51.03zm257.532-85.138H401.02c-18.427 0-36.424 10.643-50.675 29.967-12.84 17.413-20.507 39.342-20.507 58.66a3.49 3.49 0 0 0 3.489 3.489H662.13a3.49 3.49 0 0 0 3.49-3.489c0-19.318-7.668-41.247-20.508-58.66-14.252-19.324-32.248-29.967-50.676-29.967" class="B"/><path d="M554.42 554.806c37.21 0 107.71 0 107.71-67.375v-81.766H554.42z" class="F"/><path d="M557.908 409.154H658.64v78.277c0 27.896-12.314 46.112-37.646 55.69-20.31 7.68-45.31 8.164-63.086 8.195zm104.22-6.978H554.42a3.49 3.49 0 0 0-3.491 3.489v149.14a3.49 3.49 0 0 0 3.491 3.489c18.384 0 46.17 0 69.043-8.648 27.972-10.575 42.156-31.508 42.156-62.216v-81.766a3.49 3.49 0 0 0-3.49-3.489" class="B"/><path d="M419.73 146.537c0 20.785-16.85 37.635-37.635 37.635s-37.635-16.85-37.635-37.635 16.85-37.635 37.635-37.635 37.635 16.85 37.635 37.635" fill="#918f90"/><path d="M382.095 180.684c-18.828 0-34.146-15.318-34.146-34.146s15.318-34.145 34.146-34.145 34.146 15.316 34.146 34.145-15.318 34.146-34.146 34.146m0-75.27c-22.676 0-41.124 18.448-41.124 41.124s18.448 41.123 41.124 41.123 41.123-18.448 41.123-41.123-18.447-41.124-41.123-41.124" class="B"/><use xlink:href="#D" fill="#4f4c4d"/><path d="M382.095 158.225c-6.444 0-11.688-5.242-11.688-11.688s5.244-11.687 11.688-11.687 11.687 5.244 11.687 11.687-5.243 11.688-11.687 11.688m0-30.352a18.69 18.69 0 0 0-18.665 18.664 18.69 18.69 0 0 0 18.665 18.665 18.69 18.69 0 0 0 18.665-18.665 18.69 18.69 0 0 0-18.665-18.664" class="B"/><path d="M645.908 146.537c0 20.785-16.85 37.635-37.635 37.635s-37.633-16.85-37.633-37.635 16.85-37.635 37.633-37.635 37.635 16.85 37.635 37.635" fill="#918f90"/><path d="M608.273 180.684c-18.828 0-34.145-15.318-34.145-34.146s15.317-34.145 34.145-34.145 34.146 15.316 34.146 34.145-15.316 34.146-34.146 34.146m0-75.27c-22.676 0-41.123 18.448-41.123 41.124s18.447 41.123 41.123 41.123 41.125-18.448 41.125-41.123-18.45-41.124-41.125-41.124" class="B"/><path d="M623.45 146.537a15.18 15.18 0 0 1-15.176 15.176 15.18 15.18 0 0 1-15.176-15.176 15.18 15.18 0 0 1 15.176-15.176 15.18 15.18 0 0 1 15.176 15.176" fill="#4f4c4d"/><path d="M608.273 158.225c-6.443 0-11.686-5.242-11.686-11.688s5.243-11.687 11.686-11.687 11.688 5.244 11.688 11.687-5.243 11.688-11.688 11.688m0-30.352a18.69 18.69 0 0 0-18.664 18.664 18.69 18.69 0 0 0 18.664 18.665 18.69 18.69 0 0 0 18.666-18.665c0-10.29-8.373-18.664-18.666-18.664" class="B"/><path d="M716.1 867.747h-1.662a7.92 7.92 0 0 1-7.92 7.92 7.92 7.92 0 0 1-7.918-7.92h-1.662c-3.385 0-6.13-2.744-6.13-6.13v-9.58c0-3.387 2.746-6.132 6.13-6.132H716.1c3.385 0 6.13 2.745 6.13 6.132v9.58c0 3.387-2.746 6.13-6.13 6.13" class="E"/><path d="M696.937 864.247c-1.45 0-2.63-1.18-2.63-2.63v-9.58c0-1.45 1.18-2.632 2.63-2.632H716.1c1.45 0 2.63 1.18 2.63 2.632v9.58c0 1.45-1.18 2.63-2.63 2.63h-1.662a3.5 3.5 0 0 0-3.5 3.5c0 2.437-1.982 4.42-4.42 4.42s-4.418-1.983-4.418-4.42a3.5 3.5 0 0 0-3.5-3.5zm19.162-21.843h-19.162c-5.31 0-9.63 4.32-9.63 9.632v9.58c0 4.863 3.623 8.897 8.313 9.54 1.454 4.637 5.8 8 10.898 8s9.446-3.373 10.9-8c4.69-.644 8.313-4.678 8.313-9.54v-9.58c0-5.31-4.32-9.632-9.63-9.632" class="B"/><path d="M729.25 847.3a5.35 5.35 0 0 0-5.348-5.348h-34.767a5.35 5.35 0 0 0-5.348 5.348v4.68a5.35 5.35 0 0 0 5.348 5.348H723.9a5.35 5.35 0 0 0 5.348-5.348z" class="F"/><path d="M689.134 853.83a1.85 1.85 0 0 1-1.848-1.849v-4.68a1.85 1.85 0 0 1 1.848-1.848h34.768a1.85 1.85 0 0 1 1.847 1.848v4.68a1.85 1.85 0 0 1-1.847 1.849zm34.768-15.377h-34.768a8.86 8.86 0 0 0-8.848 8.848v4.68a8.86 8.86 0 0 0 8.848 8.849h34.768a8.86 8.86 0 0 0 8.847-8.849v-4.68a8.86 8.86 0 0 0-8.847-8.848" class="B"/><path d="M733.93 756.708c0-5.354-4.342-9.693-9.695-9.693H688.8c-5.355 0-9.695 4.34-9.695 9.693v75.55c0 5.355 4.34 9.695 9.695 9.695h35.436a9.7 9.7 0 0 0 9.695-9.695z" class="C"/><path d="M688.8 838.454c-3.416 0-6.195-2.78-6.195-6.195v-75.55c0-3.415 2.78-6.193 6.195-6.193h35.436c3.416 0 6.195 2.778 6.195 6.193v75.55c0 3.416-2.78 6.195-6.195 6.195zm35.436-94.94H688.8c-7.276 0-13.195 5.918-13.195 13.193v75.55c0 7.276 5.92 13.195 13.195 13.195h35.436c7.276 0 13.195-5.92 13.195-13.195v-75.55c0-7.275-5.92-13.193-13.195-13.193" class="B"/><path d="M733.93 821.895h-19.223v3.344h19.223z" class="C"/><use xlink:href="#E" class="B"/><path d="M733.93 808.97H721.68v3.344h12.252z" class="C"/><use xlink:href="#F" class="B"/><path d="M733.93 796.043h-19.223v3.344h19.223z" class="C"/><path d="M733.93 794.044h-19.223a2 2 0 0 0-2 2v3.344a2 2 0 0 0 2 2h19.223a2 2 0 0 0 2-2v-3.344a2 2 0 0 0-2-2" class="B"/><path d="M733.93 783.118H721.68v3.344h12.252z" class="C"/><path d="M733.93 781.118H721.68a2 2 0 0 0-2 2v3.344a2 2 0 0 0 2 2h12.252a2 2 0 0 0 2-2v-3.344a2 2 0 0 0-2-2" class="B"/><path d="M733.93 770.192h-19.223v3.344h19.223z" class="C"/><path d="M733.93 768.192h-19.223a2 2 0 0 0-2 2v3.344a2 2 0 0 0 2 2h19.223a2 2 0 0 0 2-2v-3.344a2 2 0 0 0-2-2" class="B"/><path d="M335.856 756.296L396.7 710.2c-2.19-6.53-.115-14.002 5.68-18.4 7.26-5.5 17.605-4.072 23.105 3.188s4.074 17.607-3.188 23.107c-5.794 4.39-13.55 4.36-19.242.485l-60.853 46.094z" class="D"/><path d="M340.76 756.973l58.063-43.98a3.5 3.5 0 0 0 1.206-3.903 12.98 12.98 0 0 1 4.474-14.487c2.277-1.725 4.986-2.637 7.833-2.637a12.9 12.9 0 0 1 10.368 5.148 12.91 12.91 0 0 1 2.515 9.623c-.474 3.438-2.26 6.485-5.025 8.58-2.276 1.724-4.982 2.635-7.827 2.635a12.98 12.98 0 0 1-7.333-2.252 3.5 3.5 0 0 0-4.083.103l-58.063 43.98zm71.577-72.008h-.002c-4.385 0-8.555 1.403-12.058 4.057-6.157 4.663-9.015 12.374-7.546 19.803l-58.988 44.682a3.5 3.5 0 0 0-.676 4.903l6.355 8.39a3.5 3.5 0 0 0 4.903.677l58.987-44.68a19.97 19.97 0 0 0 9.055 2.156 19.8 19.8 0 0 0 12.053-4.055 19.86 19.86 0 0 0 7.734-13.204c.73-5.3-.645-10.548-3.87-14.805a19.84 19.84 0 0 0-15.947-7.922" class="B"/><path d="M357.642 746.396c11 14.535 9.758 34.526-2.038 47.572l-44.308-58.496c15.754-7.82 35.336-3.6 46.346 10.924" class="F"/><path d="M316.808 736.952c3.537-1.22 7.286-1.854 11.035-1.854h.003a33.6 33.6 0 0 1 27.005 13.411 33.88 33.88 0 0 1 .824 39.757zm11.038-8.854h-.003c-6.26 0-12.52 1.466-18.103 4.24-.934.463-1.613 1.32-1.85 2.334s-.013 2.083.617 2.914l44.307 58.496a3.5 3.5 0 0 0 2.639 1.384c1.055.047 2.05-.377 2.748-1.15 13.13-14.522 14.068-36.405 2.232-52.032-7.79-10.286-19.67-16.185-32.586-16.185" class="B"/><path d="M298.096 791.5c-11-14.534-9.76-34.524 2.037-47.572l44.308 58.497c-15.755 7.82-35.335 3.6-46.345-10.925" class="F"/><path d="M327.893 802.797c-10.707 0-20.55-4.888-27.007-13.412-8.934-11.795-9.087-27.89-.825-39.756l38.868 51.314a33.95 33.95 0 0 1-11.036 1.854m-27.76-62.37a3.5 3.5 0 0 0-2.596 1.153c-13.13 14.523-14.068 36.406-2.23 52.033 7.79 10.286 19.67 16.185 32.587 16.185 6.258 0 12.518-1.466 18.104-4.24a3.5 3.5 0 0 0 1.851-2.334c.238-1.014.012-2.083-.617-2.914l-44.308-58.497c-.63-.83-1.596-1.338-2.638-1.383a2.57 2.57 0 0 0-.152-.004" class="B"/><path d="M305.316 739.174c1.91-1.445 3.91-2.677 5.98-3.703l44.308 58.496c-1.547 1.713-3.275 3.308-5.183 4.753s-3.912 2.677-5.98 3.704l-44.308-58.498c1.548-1.712 3.275-3.306 5.184-4.752" fill="#616c94"/><path d="M304.748 744.223a33.96 33.96 0 0 1 2.682-2.258c.932-.706 1.902-1.365 2.9-1.97l40.658 53.68c-.853.797-1.75 1.552-2.682 2.26s-1.9 1.363-2.9 1.97zm6.546-12.252c-.525 0-1.057.12-1.553.365-2.29 1.136-4.488 2.498-6.536 4.048s-3.953 3.297-5.668 5.196a3.5 3.5 0 0 0-.194 4.46l44.308 58.497c1.015 1.34 2.84 1.77 4.346 1.022 2.293-1.138 4.492-2.5 6.537-4.047 2.05-1.554 3.955-3.302 5.668-5.198a3.5 3.5 0 0 0 .192-4.459l-44.308-58.497a3.5 3.5 0 0 0-2.792-1.387" class="B"/><path d="M407.207 563.947a11.49 11.49 0 0 0-16.242 0 11.49 11.49 0 0 0 0 16.242 11.49 11.49 0 0 0 16.242 0 11.49 11.49 0 0 0 0-16.242m-21.97 21.97c-7.648-7.65-7.648-20.05 0-27.7a19.59 19.59 0 0 1 27.7 0c7.648 7.65 7.648 20.05 0 27.7s-20.05 7.648-27.7 0" class="E"/><path d="M399.086 580.053c-2.133 0-4.14-.83-5.647-2.34-3.112-3.113-3.112-8.18.001-11.29a7.93 7.93 0 0 1 11.292-.001 8 8 0 0 1-.001 11.294c-1.507 1.506-3.512 2.337-5.645 2.337m0-22.97a14.89 14.89 0 0 0-10.596 4.388c-5.842 5.842-5.842 15.35-.001 21.192a14.89 14.89 0 0 0 21.193.001 15.01 15.01 0 0 0 0-21.193c-2.83-2.83-6.593-4.388-10.596-4.388m0 31.07a15.98 15.98 0 0 1-11.375-4.712c-6.272-6.272-6.272-16.477 0-22.75 3.04-3.038 7.08-4.712 11.375-4.712a15.98 15.98 0 0 1 11.374 4.712 16.11 16.11 0 0 1 0 22.75c-3.038 3.037-7.078 4.71-11.374 4.71m0-39.173a22.94 22.94 0 0 0-16.325 6.762c-9 9-9 23.647 0 32.65 4.36 4.36 10.158 6.762 16.325 6.762a22.93 22.93 0 0 0 16.324-6.762c9-9.002 9-23.648 0-32.65a22.93 22.93 0 0 0-16.324-6.762" class="B"/><path d="M405.71 604.23c5.033-5.034 5.033-13.194 0-18.23l-20.557-20.557c-5.035-5.033-13.195-5.033-18.228 0a12.89 12.89 0 0 0 0 18.228l20.556 20.557c5.034 5.034 13.196 5.034 18.23.001" class="E"/><path d="M396.595 604.506a9.33 9.33 0 0 1-6.64-2.75L369.4 581.198a9.32 9.32 0 0 1-.001-13.277c1.774-1.774 4.132-2.75 6.64-2.75a9.33 9.33 0 0 1 6.641 2.751l20.556 20.556c3.66 3.66 3.66 9.618 0 13.28-1.773 1.773-4.13 2.75-6.64 2.75m-20.558-46.336a16.28 16.28 0 0 0-16.39 16.389 16.28 16.28 0 0 0 4.802 11.59l20.556 20.556a16.28 16.28 0 0 0 11.59 4.801c4.378 0 8.493-1.705 11.59-4.8 6.39-6.4 6.39-16.788 0-23.178l-20.557-20.558a16.29 16.29 0 0 0-11.59-4.8" class="B"/><path d="M382.46 602.225l-1.977-1.978-3.142 3.142a10.51 10.51 0 0 1-3.004 8.736 10.53 10.53 0 0 1-14.891 0c-4.11-4.112-4.11-10.78 0-14.9 2.385-2.385 5.63-3.387 8.735-3.006l3.142-3.143-1.976-1.976c-3.21-3.21-3.21-8.416 0-11.627s8.416-3.21 11.627 0l13.115 13.113c3.21 3.21 3.21 8.417 0 11.63s-8.418 3.21-11.63 0" class="D"/><path d="M368.182 597.73c.922 0 1.814-.365 2.475-1.025l3.143-3.142c1.366-1.368 1.366-3.583 0-4.95l-1.977-1.976a4.73 4.73 0 0 1 0-6.677 4.69 4.69 0 0 1 6.677 0l13.116 13.113a4.73 4.73 0 0 1-.001 6.679c-.892.892-2.08 1.383-3.34 1.383a4.69 4.69 0 0 1-3.339-1.383l-1.976-1.977a3.5 3.5 0 0 0-4.95-.001l-3.142 3.142a3.5 3.5 0 0 0-1 2.901 6.99 6.99 0 0 1-2.005 5.835 6.98 6.98 0 0 1-9.94 0 7.04 7.04 0 0 1 5.833-11.947c.142.017.285.026.426.026m6.98-26.154c-3.13 0-6.074 1.22-8.288 3.433-4.278 4.278-4.55 11.068-.82 15.667-3.432.2-6.63 1.634-9.08 4.085-5.47 5.47-5.47 14.37 0 19.84a13.93 13.93 0 0 0 9.919 4.109 13.94 13.94 0 0 0 9.92-4.108c2.463-2.463 3.9-5.675 4.087-9.078 2.08 1.69 4.658 2.6 7.376 2.6a11.65 11.65 0 0 0 8.289-3.432c4.57-4.573 4.57-12 .001-16.58l-13.115-13.113c-2.214-2.214-5.158-3.433-8.29-3.433" class="B"/><path d="M857.4 205.797c-2.238 6.45-4.834 11.736-7.71 15.71-5.814 8.03-12.17 9.72-16.476 9.72-4.313 0-8.512-1.7-12.145-4.883-4.3-3.777-5.916-9.406-4.434-15.44.772-3.147 2.235-5.98 3.526-8.485.564-1.094 1.418-2.746 1.6-3.37 1.08-3.693.223-7.44-2.548-11.14-4.93-6.578-14.467-11.173-23.192-11.173-8.937 0-18.945 4.9-23.793 11.648-2.498 3.477-3.195 6.928-2.074 10.26.422 1.254 1.24 2.844 2.035 4.383 1.35 2.613 2.742 5.316 3.432 8.43 1.275 5.746-.418 11.174-4.645 14.89-3.637 3.195-7.836 4.885-12.148 4.885-4.305 0-10.662-1.688-16.477-9.717-2.877-3.973-5.47-9.26-7.71-15.71-3.806-10.96-6.263-24.523-6.263-34.555 0-18.07 7.037-35.056 19.812-47.834s29.764-19.812 47.832-19.812 35.057 7.035 47.832 19.812 19.813 29.764 19.813 47.834c0 10.033-2.46 23.596-6.264 34.553" class="D"/><path d="M758.826 227.725c-3.49 0-8.692-1.435-13.642-8.27-2.673-3.692-5.1-8.673-7.24-14.804-3.687-10.615-6.07-23.73-6.07-33.406 0-17.133 6.672-33.243 18.787-45.36s28.222-18.787 45.357-18.787 33.245 6.672 45.358 18.787 18.787 28.225 18.787 45.36c0 9.672-2.383 22.785-6.07 33.404-2.125 6.125-4.56 11.105-7.24 14.805-4.95 6.836-10.15 8.27-13.64 8.27-3.45 0-6.85-1.387-9.834-4.012-3.335-2.93-4.523-7.182-3.345-11.977.67-2.74 1.972-5.262 3.23-7.7 1.077-2.088 1.623-3.208 1.857-4.014 1.384-4.735.31-9.652-3.11-14.216-5.55-7.404-16.238-12.575-25.993-12.575-10.138 0-21.09 5.4-26.635 13.106-3.976 5.534-3.58 10.35-2.55 13.418.512 1.523 1.43 3.303 2.243 4.873 1.244 2.41 2.53 4.9 3.124 7.58 1.005 4.53-.25 8.615-3.538 11.503-2.988 2.626-6.39 4.014-9.838 4.014m37.193-127.627c-19.006 0-36.872 7.4-50.306 20.838s-20.838 31.306-20.838 50.31c0 10.395 2.535 24.4 6.457 35.703 2.354 6.777 5.107 12.367 8.182 16.613 6.682 9.227 14.2 11.164 19.312 11.164 5.174 0 10.173-2 14.46-5.756 5.215-4.584 7.312-11.245 5.75-18.276-.8-3.568-2.356-6.6-3.74-9.278-.697-1.347-1.486-2.876-1.827-3.892-.752-2.235-.23-4.558 1.6-7.102 4.173-5.81 13.18-10.2 20.95-10.2 7.572 0 16.147 4.1 20.39 9.772 2.104 2.81 2.755 5.445 2 8.06-.15.42-1.014 2.1-1.34 2.73-1.394 2.705-2.955 5.733-3.824 9.275-1.805 7.346.21 14.237 5.524 18.905 4.28 3.764 9.28 5.753 14.454 5.753 5.122 0 12.63-1.938 19.31-11.166 3.08-4.254 5.833-9.844 8.183-16.614 3.923-11.296 6.457-25.3 6.457-35.7 0-19.005-7.4-36.872-20.838-50.31s-31.3-20.838-50.307-20.838" class="B"/><path d="M828.11 218.328c-4.12-3.62 2.354-11.04 3.89-16.287 5.582-19.07-16.108-35.98-35.98-35.98s-42.318 17.147-35.98 35.98c2.216 6.582 8.01 12.666 3.9 16.287-13.664 12-24.886-27.52-24.886-47.084 0-31.47 25.51-56.98 56.976-56.98s56.977 25.5 56.977 56.98c0 19.564-11.223 59.094-24.887 47.084" class="C"/><g class="B"><path d="M758.827 217.057c-6.85 0-16.284-26.546-16.284-45.813 0-29.488 24-53.478 53.476-53.478s53.477 24 53.477 53.478c0 19.267-9.436 45.813-16.284 45.813-.828 0-1.768-.457-2.792-1.357-.805-.707 1.313-4.813 2.33-6.787 1.004-1.945 2.04-3.957 2.606-5.9 2.334-7.975.627-16.362-4.807-23.614-7.55-10.077-21.426-16.847-34.53-16.847-13.36 0-27.877 7.217-35.3 17.55-5.162 7.183-6.58 15.367-3.996 23.046.766 2.275 1.884 4.444 2.872 6.357 1.6 3.105 2.767 5.532 2.025 6.185-1.024.9-1.964 1.357-2.792 1.357m37.192-106.3c-33.346 0-60.476 27.13-60.476 60.478 0 15.794 7.922 52.813 23.284 52.813 2.58 0 5.073-1.043 7.413-3.1 4.908-4.312 1.825-10.288-.425-14.65-.916-1.775-1.863-3.6-2.46-5.382-2.366-7.028.35-12.975 3.047-16.727 6.2-8.617 18.37-14.634 29.616-14.634 11 0 22.635 5.643 28.93 14.044 2.887 3.852 5.87 10.007 3.7 17.45-.376 1.287-1.257 2.995-2.1 4.647-2.38 4.617-5.64 10.938-.73 15.252 2.34 2.057 4.834 3.1 7.413 3.1 8.48 0 14.15-11.208 17.416-20.6 3.564-10.267 5.868-22.907 5.868-32.204 0-33.347-27.13-60.478-60.477-60.478m33.106 116.96a3.5 3.5 0 0 0-3.5 3.5c0 16.33-13.285 29.615-29.615 29.615s-29.615-13.285-29.615-29.615a3.5 3.5 0 1 0-7 0c0 20.2 16.425 36.615 36.615 36.615s36.615-16.426 36.615-36.615a3.5 3.5 0 0 0-3.5-3.5"/><path d="M785.98 278.482a4.07 4.07 0 0 1-2.897-1.2 4.08 4.08 0 0 1-1.203-2.902c0-1.095.427-2.125 1.202-2.9.835-.832 4.427-1.977 8.65-2.852-.875 4.225-2.02 7.817-2.852 8.653-.775.774-1.804 1.2-2.9 1.2m10.04-17.643a3.43 3.43 0 0 0-.473.033c-3.194.435-13.9 2.13-17.417 5.66a11.03 11.03 0 0 0-3.251 7.848c0 2.965 1.156 5.753 3.252 7.85a11.02 11.02 0 0 0 7.848 3.252 11.03 11.03 0 0 0 7.85-3.252c3.528-3.528 5.223-14.224 5.66-17.418a3.5 3.5 0 0 0-3.468-3.973"/><path d="M806.06 278.482c-1.096 0-2.125-.427-2.9-1.2-.817-.82-1.97-4.454-2.848-8.652 4.223.875 7.812 2.02 8.648 2.85a4.11 4.11 0 0 1 0 5.801c-.775.774-1.804 1.2-2.9 1.2m-10.04-17.643a3.5 3.5 0 0 0-3.468 3.973c.436 3.194 2.13 13.9 5.66 17.418a11.03 11.03 0 0 0 15.7 0c4.33-4.328 4.33-11.37 0-15.7-3.53-3.528-14.224-5.224-17.418-5.66a3.43 3.43 0 0 0-.473-.033"/></g><path d="M861.865 609.597v41.237c0 26.5-21.5 48-48 48s-48-21.5-48-48v-41.237z" class="C"/><path d="M769.365 613.097h89v37.737c0 24.537-19.963 44.5-44.5 44.5s-44.5-19.963-44.5-44.5zm92.5-7h-96a3.5 3.5 0 0 0-3.5 3.5v41.237c0 28.397 23.103 51.5 51.5 51.5s51.5-23.103 51.5-51.5v-41.237a3.5 3.5 0 0 0-3.5-3.5" class="B"/><path d="M874.647 584.387a11 11 0 0 0-11-11h-99.563c-6.074 0-11 4.925-11 11v17.394c0 6.075 4.926 11 11 11h99.563a11 11 0 0 0 11-11z" class="C"/><path d="M764.084 609.28a7.51 7.51 0 0 1-7.5-7.5v-17.394a7.51 7.51 0 0 1 7.5-7.5h99.563a7.51 7.51 0 0 1 7.5 7.5v17.394a7.51 7.51 0 0 1-7.5 7.5zm99.563-39.394h-99.563a14.52 14.52 0 0 0-14.5 14.5v17.394a14.52 14.52 0 0 0 14.5 14.5h99.563a14.52 14.52 0 0 0 14.5-14.5v-17.394a14.52 14.52 0 0 0-14.5-14.5" class="B"/><path d="M855.2 573.387H844.53v24.543H855.2z" fill="#fff"/><path d="M848.03 576.887h3.668v17.543h-3.668zm7.168-7H844.53a3.5 3.5 0 0 0-3.5 3.5v24.544a3.5 3.5 0 0 0 3.5 3.5H855.2a3.5 3.5 0 0 0 3.5-3.5v-24.544a3.5 3.5 0 0 0-3.5-3.5" class="B"/><path d="M553.284 840.666a26.92 26.92 0 0 0 5.271-.521v38.885H506.9v-21.078h-21.793c-1.334 0-2.64-.117-3.912-.33v-46.28c1.272-.213 2.578-.33 3.912-.33H526.6c-.097.93-.15 1.875-.15 2.832 0 14.814 12 26.823 26.824 26.823" fill="#fff"/><path d="M484.696 814.515l.412-.004h37.86c.357 16.412 13.82 29.655 30.317 29.655.6 0 1.18-.017 1.77-.052v31.416H510.4v-17.578a3.5 3.5 0 0 0-3.5-3.5h-21.793c-.137 0-.274-.001-.412-.004zm41.914-7.004h-41.502c-1.48 0-2.99.127-4.5.378a3.5 3.5 0 0 0-2.922 3.452v46.28a3.5 3.5 0 0 0 2.922 3.452c1.5.25 3 .378 4.5.378H503.4v17.578a3.5 3.5 0 0 0 3.5 3.5h51.654a3.5 3.5 0 0 0 3.5-3.5v-38.885a3.5 3.5 0 0 0-1.28-2.706c-.81-.664-1.874-.93-2.904-.726-1.508.3-3.05.453-4.587.453-12.86 0-23.324-10.463-23.324-23.323 0-.807.044-1.637.13-2.467.103-.986-.216-1.97-.88-2.708a3.5 3.5 0 0 0-2.601-1.157" class="B"/><path d="M461.638 834.48c0-11.63 8.46-21.276 19.56-23.14v46.282c-11.1-1.864-19.56-11.512-19.56-23.14" class="C"/><path d="M477.696 853.036c-7.473-2.96-12.56-10.21-12.56-18.555s5.086-15.593 12.56-18.554zm3.5-45.195c-.192 0-.387.016-.58.048-13.024 2.188-22.48 13.372-22.48 26.592s9.455 24.406 22.48 26.593c1.013.17 2.054-.115 2.84-.78a3.5 3.5 0 0 0 1.239-2.672v-46.28a3.5 3.5 0 0 0-3.5-3.5" class="B"/><path d="M558.556 834.48v5.664a26.93 26.93 0 0 1-5.271.521c-14.815 0-26.825-12.01-26.825-26.824a27.03 27.03 0 0 1 .151-2.832h8.472c12.963 0 23.473 10.508 23.473 23.47" class="F"/><path d="M529.97 814.5h5.113c11.013 0 19.973 8.96 19.973 19.97v2.617c-.6.045-1.182.067-1.772.067-12.637 0-22.96-10.103-23.314-22.655m5.113-7h-8.472a3.5 3.5 0 0 0-3.481 3.135c-.113 1.072-.17 2.147-.17 3.197 0 16.72 13.604 30.323 30.324 30.323 1.995 0 3.998-.197 5.957-.588a3.5 3.5 0 0 0 2.815-3.432v-5.664c0-14.872-12.1-26.97-26.973-26.97" class="B"/><path d="M558.556 896.402h-51.654V879.03h51.654z" class="C"/><path d="M510.4 882.53h44.654v10.372H510.4zm48.155-7H506.9a3.5 3.5 0 0 0-3.5 3.5v17.372a3.5 3.5 0 0 0 3.5 3.5h51.655a3.5 3.5 0 0 0 3.5-3.5V879.03a3.5 3.5 0 0 0-3.5-3.5" class="B"/><path d="M596.814 694.84c0-8.87-7.19-16.062-16.06-16.062H553.44c-8.87 0-16.06 7.193-16.06 16.062s7.192 16.06 16.06 16.06h27.312c8.87 0 16.06-7.19 16.06-16.06" fill="#fff"/><path d="M553.44 707.4a12.58 12.58 0 0 1-12.561-12.561 12.58 12.58 0 0 1 12.561-12.561h27.312a12.58 12.58 0 0 1 12.561 12.561 12.58 12.58 0 0 1-12.561 12.561zm27.312-32.122H553.44c-10.786 0-19.56 8.775-19.56 19.56s8.775 19.56 19.56 19.56h27.312c10.787 0 19.56-8.775 19.56-19.56s-8.774-19.56-19.56-19.56" class="B"/><path d="M641.85 662.624c0-17.793-14.426-32.218-32.217-32.218h-85.072c-17.795 0-32.22 14.425-32.22 32.218s14.424 32.217 32.22 32.217h85.072c17.79 0 32.217-14.425 32.217-32.217" class="C"/><g class="B"><path d="M524.562 691.34c-15.836 0-28.72-12.882-28.72-28.717s12.883-28.718 28.72-28.718h85.072c15.835 0 28.717 12.883 28.717 28.718s-12.882 28.717-28.717 28.717zm85.072-64.435h-85.072c-19.695 0-35.72 16.023-35.72 35.718s16.024 35.717 35.72 35.717h85.072c19.695 0 35.717-16.022 35.717-35.717s-16.022-35.718-35.717-35.718"/><path d="M661.013 659.124H473.18a3.5 3.5 0 1 0 0 7h187.832a3.5 3.5 0 1 0 0-7"/></g><path d="M754.898 408.648l44.887-43.883 37.355 68.942-51.85 9z" class="D"/><path d="M759.736 408.814l39.18-38.304 32.826 60.582-45.137 7.835zm40.05-47.548a3.5 3.5 0 0 0-2.446.997l-44.887 43.883a3.5 3.5 0 0 0-.165 4.833l30.4 34.06c.804.9 2.012 1.326 3.2 1.118l51.852-9a3.5 3.5 0 0 0 2.551-1.923c.49-1.013.465-2.202-.073-3.193l-37.355-68.94c-.522-.966-1.47-1.63-2.554-1.793a3.42 3.42 0 0 0-.523-.04" class="B"/><path d="M889.717 408.648L843.15 363.9l-35.676 69.807 51.85 9z" class="D"/><path d="M812.753 431.07l31.37-61.382 40.736 39.146-26.852 30.09zm30.397-70.67c-.192 0-.386.016-.58.048-1.09.184-2.032.873-2.536 1.86l-35.676 69.806a3.5 3.5 0 0 0-.014 3.157c.497.995 1.436 1.695 2.532 1.884l51.85 9c1.2.21 2.405-.215 3.2-1.117l30.392-34.06a3.5 3.5 0 0 0-.186-4.854l-46.567-44.748c-.657-.632-1.528-.976-2.425-.976" class="B"/><path d="M754.898 469.714V408.65c5.05 3.2 11.033 5.058 17.453 5.058 11.506 0 21.613-5.952 27.434-14.94l1.29-34.866h42.076l2.437 34.867c5.82 8.987 15.928 14.94 27.432 14.94 6.42 0 12.404-1.86 17.455-5.06v61.066z" fill="#fff"/><path d="M804.447 367.4h35.44l2.2 31.61c.04.59.232 1.16.553 1.658 6.704 10.356 18.058 16.538 30.37 16.538 4.823 0 9.558-.958 13.955-2.8v51.806H758.398v-51.806c4.398 1.842 9.132 2.8 13.953 2.8 12.312 0 23.666-6.183 30.37-16.538a3.49 3.49 0 0 0 .561-1.773zm38.703-7h-42.076a3.5 3.5 0 0 0-3.498 3.371l-1.252 33.873c-5.466 7.884-14.357 12.563-23.973 12.563-5.53 0-10.917-1.562-15.58-4.515-1.078-.684-2.443-.725-3.56-.1a3.5 3.5 0 0 0-1.813 3.066v61.065a3.5 3.5 0 0 0 3.5 3.5h135.576a3.5 3.5 0 0 0 3.5-3.5v-61.066a3.5 3.5 0 0 0-5.373-2.956 29.07 29.07 0 0 1-39.587-8.095l-2.373-33.94a3.5 3.5 0 0 0-3.491-3.256" class="B"/><path d="M784.975 438.374H754.9v13.234h30.076z" class="D"/><path d="M758.398 441.874h23.076v6.234h-23.076zm26.577-7h-30.077a3.5 3.5 0 0 0-3.5 3.5v13.234a3.5 3.5 0 0 0 3.5 3.5h30.077a3.5 3.5 0 0 0 3.5-3.5v-13.234a3.5 3.5 0 0 0-3.5-3.5" class="B"/><path d="M889.717 438.374H859.64v13.234h30.076z" class="D"/><g class="B"><path d="M863.14 441.874h23.076v6.234H863.14zm26.576-7H859.64a3.5 3.5 0 0 0-3.5 3.5v13.234a3.5 3.5 0 0 0 3.5 3.5h30.076a3.5 3.5 0 0 0 3.5-3.5v-13.234a3.5 3.5 0 0 0-3.5-3.5"/><path d="M859.64 441.49h-74.666a3.5 3.5 0 1 0 0 7h74.666a3.5 3.5 0 1 0 0-7"/></g></g></g></svg>