<svg xmlns="http://www.w3.org/2000/svg" xmlns:xlink="http://www.w3.org/1999/xlink" height="1306.667" width="1866.667"><style><![CDATA[.B{fill:#5a3114}.C{fill:#fff}.D{fill:#3871c1}.E{fill:#f14624}.F{fill:#fbca75}.G{fill:#143763}.H{fill:#f68712}.I{fill:#faba09}]]></style><path d="M1866.662 1306.667H0V.003h1866.662v1306.663" fill="#c4ecfb"/><path d="M863.41 366.765c3.86 1.2 21.87 40.5 21.87 40.5l-43.58 19.653-18.327-40.16 40.036-19.99" fill="#daaf66"/><path d="M360.05 831.993c2.12 7.873-2.54 15.975-10.413 18.097s-15.975-2.54-18.097-10.413 2.54-15.975 10.413-18.097 15.975 2.54 18.097 10.413m112.362-30.285c2.123 7.873-2.54 15.976-10.412 18.097s-15.976-2.54-18.097-10.413 2.54-15.975 10.413-18.096 15.975 2.54 18.096 10.412" fill="#e3b66a"/><path d="M456.5 794.205c8.46 31.388-10.127 63.692-41.516 72.152S351.29 856.23 342.83 824.84s10.127-63.692 41.516-72.152 63.692 10.127 72.152 41.516" class="F"/><path d="M417.478 844.897l-15.436 4.16a7.06 7.06 0 0 1-8.653-4.979l-2.2-8.17a7.06 7.06 0 0 1 4.979-8.653l15.436-4.16c3.765-1.015 7.64 1.215 8.655 4.98l2.2 8.17a7.06 7.06 0 0 1-4.98 8.653" fill="#ef2e32"/><path d="M395.754 841.36c1.733 6.432 8.353 10.24 14.785 8.507s10.24-8.353 8.507-14.785" fill="none" stroke="#fff" stroke-linecap="round" stroke-linejoin="round" stroke-miterlimit="10" stroke-width="6.667"/><path d="M376.098 815.525c.812 3-.97 6.108-3.98 6.92s-6.108-.972-6.92-3.983.97-6.108 3.98-6.92 6.108.97 6.92 3.98m57.86-15.592a5.65 5.65 0 0 1-3.981 6.92 5.65 5.65 0 0 1-6.92-3.98c-.8-3.008.97-6.1 3.98-6.92s6.108.97 6.92 3.98m-66.907-43.88c-.56 2.647-.767 5.456.147 8 1.42 3.953 5.287 6.687 9.4 7.587s8.405.197 12.412-1.068c5.413-1.7 10.72-4.645 13.737-9.455 2.228-3.553 2.907-8.484.35-11.808-1.828-2.373-4.925-3.456-7.915-3.653-2.247-.148-4.612.1-6.652-.843-3.1-1.445-4.357-5.8-2.52-8.685 0 0-15.735 4.717-18.948 19.924" class="B"/><path d="M406.07 1017.665h-84.378c-90.63 0-164.098-73.47-164.098-164.1H570.17c0 90.63-73.47 164.1-164.1 164.1" class="D"/><g class="G"><path d="M362.866 638.93v214.635h-205.27c0-115.44 91.068-209.63 205.27-214.635M239.45 1070.586c-29.23 0-52.923-23.692-52.923-52.92s23.693-52.923 52.923-52.923 52.923 23.693 52.923 52.923-23.693 52.92-52.923 52.92zm0-123.145c-38.787 0-70.224 31.437-70.224 70.224s31.437 70.224 70.224 70.224 70.224-31.44 70.224-70.224-31.44-70.224-70.224-70.224"/><path d="M255.735 1017.665c0 8.996-7.287 16.284-16.284 16.284s-16.284-7.288-16.284-16.284 7.287-16.284 16.284-16.284 16.284 7.287 16.284 16.284m225.937 52.92c-29.23 0-52.923-23.692-52.923-52.92s23.693-52.923 52.923-52.923 52.923 23.693 52.923 52.923-23.693 52.92-52.923 52.92zm0-123.145c-38.785 0-70.224 31.437-70.224 70.224s31.44 70.224 70.224 70.224 70.224-31.44 70.224-70.224-31.437-70.224-70.224-70.224m16.284 70.224c0 8.996-7.287 16.284-16.284 16.284s-16.284-7.288-16.284-16.284 7.288-16.284 16.284-16.284 16.284 7.287 16.284 16.284"/></g><path d="M491.55 853.897c0 8.01-6.493 14.503-14.504 14.503s-14.503-6.493-14.503-14.503 6.493-14.503 14.503-14.503 14.504 6.492 14.504 14.503" fill="#e3b66a"/><path d="M544.095 905.212c-1.196 0-2.41-.224-3.588-.695a9.67 9.67 0 0 1-5.387-12.568l99.978-269.12c4.797-11.995 16.245-19.745 29.164-19.745h43.29a9.67 9.67 0 0 1 9.669 9.669 9.67 9.67 0 0 1-9.669 9.668h-43.29c-4.965 0-9.365 2.98-11.21 7.59l-99.977 269.12c-1.512 3.78-5.144 6.08-8.98 6.08" class="G"/><path d="M988.24 1029.8l-28.328 8.045-48.42 40.656 4.08 11.64 78.676-22.165c7.055-2.472 10.096-10.77 6.31-17.216l-12.316-20.96" class="B"/><path d="M927.824 633.178l23.523 31.024c17.032 25.305 18.86 41.324 15.572 78.61l-9.508 107.097c25.095 40.03 32.513 108.37 30.83 179.892l-28.328 8.045-57.92-171.665c-2.217-6.78-4.01-13.692-5.37-20.695l-42.1-178.15 73.3-34.16" fill="#102d51"/><path d="M918.354 435.884l36.385 215.878-98.978 15.575-47.423-129.016c-7.623-18.063-8.15-38.336-1.477-56.77l30.225-48.51c6.175-17.06 14-29.09 31.957-31.675 26.31-3.787 44.76 8.327 49.31 34.517" class="E"/><path d="M725.354 607.724c0 14.24-11.545 25.787-25.788 25.787s-25.787-11.545-25.787-25.787 11.545-25.787 25.787-25.787 25.788 11.545 25.788 25.787" class="F"/><path d="M845.865 415.577L818.14 517.885l-112.453 70.984 11.943 30.268 108.598-44.463c18.98-8 34.087-23.097 42.1-42.072l38.872-92.064c8.232-19.5-3.69-41.61-24.507-45.443-15.596-2.873-31.04 5.716-36.827 20.48" class="H"/><path d="M954.74 651.762l9.13 27.712c2.863 8.687 4.452 17.772 4.4 26.92-.117 19.987-6.76 34.756-22.14 60l-80.312 110.205c4.75 47.007-22.145 109.596-55.36 172.96h-27.644l26.116-182.94a172.3 172.3 0 0 1 4.36-20.931l41.236-178.35 100.214-15.575" class="G"/><path d="M810.457 1049.558h-27.644l-58.355 25.68v12.335h79.044c7.475 0 13.09-6.827 11.647-14.16l-4.692-23.855" class="B"/><path d="M901.964 318.508c-.073 47.01-38.232 85.052-85.242 84.98-11.01-.017-21.535-2.132-31.2-5.963-8.885-3.51-17.05-8.497-24.192-14.643-18.137-15.632-29.61-38.805-29.57-64.64.073-46.99 38.232-85.032 85.224-84.958 47.01.072 85.052 38.232 84.978 85.222" class="F"/><path d="M760.19 337.222a5.47 5.47 0 0 1-5.477 5.46 5.47 5.47 0 0 1-5.46-5.477 5.47 5.47 0 0 1 5.477-5.46 5.47 5.47 0 0 1 5.46 5.477" class="B"/><path d="M786.114 397.348c-8.98-3.256-17.283-8.01-24.596-13.95l33.12-28.188c6.015 14.15 2.95 31.02-8.525 42.14" fill="#c62528"/><path d="M909.356 318.52c-.033 21.557-7.436 41.365-19.808 57.09a91.79 91.79 0 0 1-21.588-5.648c-9.664-3.81-18.547-9.22-26.308-15.904-13.827-11.91-24.072-27.848-28.96-45.997a92.28 92.28 0 0 1-24.8 3.339c-11.967-.02-23.412-2.315-33.915-6.487-.04-.02-.08-.04-.12-.04 9.192-14.35 14.533-31.404 14.56-49.725.008-5.055-.384-10.01-1.156-14.847 14.36-9.148 31.43-14.436 49.73-14.408a93.12 93.12 0 0 1 12.327.839c17.657 2.365 33.73 9.723 46.76 20.61 20.373 16.995 33.32 42.568 33.275 71.178" class="B"/><path d="M768.422 255.147c-.028 18.32-5.37 35.375-14.56 49.725-7.29 11.337-16.956 20.992-28.315 28.227-.792-4.836-1.184-9.81-1.176-14.867.015-9.87 1.568-19.357 4.46-28.283 6.665-20.688 20.44-38.21 38.437-49.65.772 4.836 1.164 9.792 1.156 14.847" fill="#693a19"/><path d="M830.87 313.897a16.57 16.57 0 0 1-16.592 16.543c-2.144-.004-4.192-.415-6.073-1.16a16.55 16.55 0 0 1-4.709-2.849c-3.53-3.044-5.764-7.555-5.756-12.583.015-9.147 7.443-16.552 16.59-16.537s16.556 7.44 16.54 16.588" class="F"/><path d="M899.352 306.755s37-20.637 73.43 8.26 19.36 96.305 19.36 96.305-77.7-42.284-92.792-104.565" class="B"/><path d="M599.355 523.957H513.38c-9.7 0-17.564-7.864-17.564-17.564V355.756h121.102v150.637c0 9.7-7.864 17.564-17.564 17.564" class="C"/><path d="M616.918 398.408H495.816v-42.652h121.102v42.652" fill="#a1e1f9"/><path d="M577.11 231.01c0-12.64-10.944-22.727-23.873-21.3-9.585 1.057-17.448 8.67-18.78 18.22-.648 4.637.195 9.03 2.113 12.783 4.385 8.575 6.225 18.227 6.225 27.86v9.9h25.76v-9.903c0-9.637 1.853-19.29 6.233-27.876a21.23 21.23 0 0 0 2.321-9.685" class="C"/><path d="M616.918 327.468H494.432c0-33.82 27.42-61.244 61.243-61.244s61.244 27.423 61.244 61.244" fill="#2e9adc"/><path d="M617.36 355.756H493.99a12.32 12.32 0 0 1-12.317-12.317v-3.653a12.32 12.32 0 0 1 12.317-12.317h123.37a12.32 12.32 0 0 1 12.317 12.317v3.653a12.32 12.32 0 0 1-12.317 12.317" class="E"/><g fill="#2e9adc"><path d="M527.428 373.4h-31.612v-7.144h31.612a3.11 3.11 0 0 1 3.112 3.111v.923a3.11 3.11 0 0 1-3.112 3.111"/><use xlink:href="#B"/><use xlink:href="#C"/><use xlink:href="#B" y="28.57"/><path d="M527.428 430.56h-31.612v-7.145h31.612c1.72 0 3.112 1.393 3.112 3.11v.924c0 1.717-1.393 3.11-3.112 3.11"/><use xlink:href="#C" y="42.36"/><use xlink:href="#B" y="70.93"/><path d="M513.14 472.92h-17.323v-7.145h17.323a3.11 3.11 0 0 1 3.111 3.111v.924a3.11 3.11 0 0 1-3.111 3.111m14.288 14.29h-31.612v-7.145h31.612a3.11 3.11 0 0 1 3.112 3.111v.923a3.11 3.11 0 0 1-3.112 3.112"/></g><path d="M398.455 264.663v126.376c0 62.147-50.388 112.534-112.534 112.534h-15.8c-10.073 0-19.843-1.316-29.12-3.812-19.383-5.175-36.684-15.388-50.448-29.152-20.35-20.364-32.95-48.49-32.95-79.57V264.663h240.854" class="C"/><path d="M240.998 446.7v53.052c-19.383-5.175-36.684-15.388-50.448-29.152-20.35-20.364-32.95-48.5-32.95-79.57h27.728c30.744 0 55.67 24.927 55.67 55.67m74.06 0v53.052c19.383-5.175 36.684-15.388 50.45-29.152 20.348-20.364 32.948-48.5 32.948-79.57h-27.728c-30.744 0-55.67 24.927-55.67 55.67" fill="#a1e1f9"/><path d="M287.71 323.04h-47.617v-28.78h47.617v28.78" class="I"/><path d="M252.83 351.822h-95.234V294.26h95.234v57.563" class="H"/><path d="M270.185 323.04h47.617v-28.78h-47.617v28.78" class="I"/><path d="M305.07 351.822h95.234V294.26H305.07v57.563m997.13 193.782c-15.687 9.45-30.425 15.124-56.747 12.573s-40.633-11.044-54.204-23.33c15.68-9.46 31.357-15.044 57.677-12.492s39.695 10.952 53.273 23.25m198.384 13.184h-159.826c-7.997 0-14.477-6.48-14.477-14.475v-8.1c0-7.995 6.48-14.475 14.477-14.475h159.826c7.987 0 14.467 6.48 14.467 14.475v8.1c0 7.995-6.48 14.475-14.467 14.475m142.613 93.758h-481.704V577.25h481.704v75.297" class="H"/><path d="M1643.196 577.25h-481.704V558.79h481.704v18.463" class="E"/><path d="M1216.646 788.78l-21.215-5.008 28.135-119.17 21.213 5-28.133 119.168m371.4 0l21.227-5.008-28.147-119.17-21.213 5 28.133 119.168" class="D"/><path d="M1402.343 818.98c-128.376 0-243.893-26.11-301.47-68.142-5.708-4.168-6.96-12.175-2.79-17.884s12.175-6.96 17.884-2.79c52.608 38.405 165.017 63.22 286.377 63.22s233.773-24.815 286.373-63.22a12.81 12.81 0 0 1 17.893 2.791 12.8 12.8 0 0 1-2.8 17.884c-57.573 42.032-173.093 68.142-301.466 68.142" class="G"/><path d="M1643.196 652.543h-23.973v-216.1h23.973zm-45.773 0h-23.973v-216.1h23.973zm-45.76 0H1527.7v-216.1h23.973zm-45.787 0h-23.973v-216.1h23.973zm-45.773 0h-23.973v-216.1h23.973zm-45.76 0h-23.973v-216.1h23.973zm-45.787 0h-23.973v-216.1h23.973zm-45.768 0h-23.976v-216.1h23.976zm-45.767 0h-23.976v-216.1h23.976zm-45.785 0h-23.976v-216.1h23.976zm-45.767 0h-23.976v-216.1h23.976zm457.726-309.826v71.945h-481.7v-71.945h-21.81V674.35h525.324V342.717h-21.813" class="D"/><g class="I"><path d="M1660.423 342.717h-13.773c0-56.776-46.2-102.966-102.973-102.966h-281.462c-56.776 0-102.965 46.2-102.965 102.966h-13.78c0-64.375 52.372-116.745 116.745-116.745h281.462c64.373 0 116.746 52.37 116.746 116.745m-214.267-9.323l2.653 5.37a1.72 1.72 0 0 0 1.293.937l5.92.86c1.4.204 1.96 1.93.947 2.92l-4.28 4.18a1.69 1.69 0 0 0-.493 1.515l1.013 5.903a1.72 1.72 0 0 1-2.493 1.804l-5.293-2.787a1.73 1.73 0 0 0-1.6 0l-5.293 2.787c-1.253.66-2.72-.407-2.48-1.804l1.013-5.903a1.73 1.73 0 0 0-.493-1.515l-4.293-4.18c-1.013-1-.453-2.716.947-2.92l5.933-.86a1.7 1.7 0 0 0 1.28-.937l2.653-5.37c.627-1.272 2.44-1.272 3.067 0m-46.12 40.836l2.053 4.155a1.3 1.3 0 0 0 1 .725l4.587.667a1.33 1.33 0 0 1 .733 2.259l-3.32 3.235a1.33 1.33 0 0 0-.387 1.173l.787 4.568c.187 1.08-.947 1.907-1.92 1.396l-4.107-2.157a1.31 1.31 0 0 0-1.227 0l-4.107 2.157c-.973.5-2.107-.315-1.92-1.396l.787-4.568c.067-.43-.08-.868-.387-1.173l-3.32-3.235a1.33 1.33 0 0 1 .733-2.259l4.587-.667c.44-.063.813-.333 1-.725l2.053-4.155c.48-.985 1.893-.985 2.373 0m-32.984-68.47l3.427 6.953a2.21 2.21 0 0 0 1.667 1.213l7.68 1.115a2.22 2.22 0 0 1 1.227 3.78l-5.547 5.412a2.2 2.2 0 0 0-.64 1.963l1.307 7.64a2.22 2.22 0 0 1-3.213 2.337l-6.867-3.608a2.22 2.22 0 0 0-2.067 0l-6.853 3.608c-1.627.855-3.533-.527-3.213-2.337l1.307-7.64c.12-.72-.12-1.453-.64-1.963l-5.547-5.412c-1.32-1.283-.6-3.516 1.227-3.78l7.667-1.115c.72-.105 1.347-.56 1.667-1.213l3.44-6.953a2.22 2.22 0 0 1 3.973 0"/><path d="M1434.383 302.44c-.867 13.688-12.133 24.75-25.84 25.377-2.333.108-4.613-.08-6.8-.533-2.24-.463-2.507-3.547-.427-4.477 8.467-3.776 14.373-12.268 14.373-22.14s-5.907-18.356-14.36-22.13c-2.093-.93-1.813-4.017.427-4.48 1.773-.368 3.627-.56 5.507-.56 15.6 0 28.12 13.135 27.12 28.947"/></g><g class="C"><path d="M1366.597 311.12h-3.067v-54.476h3.067v54.476m79.56 29.225h-3.067v-89.06h3.067v89.06"/><path d="M1410.343 256.643h-3.067V222.4h3.067v34.244m-7.493 122.816h-3.067V256.643h3.067V379.46"/><path d="M1410.343 276.8h-3.067v-20.16h3.067v20.16"/></g><path d="M1454.5 256.643h-97.92v-5.36h97.92v5.36" class="E"/><path d="M1264.682 947.664c29.664 43.744 18.248 103.265-25.496 132.93s-103.264 18.248-132.928-25.495l-.6-.91c12.732 17.765 57.91 8.44 101.362-21.027s68.83-67.99 57.037-86.39c.21.283.416.587.623.89" class="D"/><path d="M1263.188 945.514c-13.244-17.048-57.96-7.61-100.98 21.564s-68.332 67.224-57.395 85.834c-27.84-43.536-16.08-101.57 26.94-130.744s101.286-18.628 131.434 23.345" class="C"/><g class="H"><path d="M1264.06 946.773c11.793 18.4-13.585 56.923-57.037 86.39s-88.63 38.792-101.362 21.027l-.76-1.15-.087-.127c-10.937-18.61 14.373-56.66 57.395-85.834s87.736-38.612 100.98-21.564l.085.127c.27.37.528.752.787 1.132"/><path d="M1105.4 1053.83l-.5-.8.76 1.15c-.097-.117-.176-.232-.26-.36m158.422-107.433l.237.376-.787-1.132.55.756"/></g><g class="D"><path d="M1494.77 1017.243c-11.827 0-21.453 9.625-21.453 21.46s9.627 21.46 21.453 21.46c11.84 0 21.453-9.627 21.453-21.46s-9.613-21.46-21.453-21.46zm0 56.783c-19.48 0-35.32-15.847-35.32-35.324s15.84-35.323 35.32-35.323 35.32 15.845 35.32 35.323-15.84 35.324-35.32 35.324"/><path d="M1494.77 1017.243c-3.827 0-6.933-3.104-6.933-6.932v-18.26c0-3.828 3.107-6.932 6.933-6.932s6.933 3.104 6.933 6.932v18.26c0 3.828-3.107 6.932-6.933 6.932"/></g><path d="M1522.503 930.65c0-16.355-14.16-29.4-30.88-27.556-12.4 1.368-22.573 11.216-24.307 23.572-1.027 7.33.84 14.188 4.587 19.64 3.853 5.587 6.2 12.065 6.2 18.85v26.896h33.333v-26.907c0-6.78 2.347-13.252 6.2-18.835 3.067-4.452 4.867-9.843 4.867-15.66" class="C"/><path d="M1494.783 998.985c-26.947 0-52.493-3.71-70.08-10.17a6.94 6.94 0 0 1-4.107-8.9 6.93 6.93 0 0 1 8.893-4.115c16.107 5.923 39.907 9.32 65.293 9.32 25.36 0 49.16-3.397 65.267-9.32a6.95 6.95 0 0 1 8.907 4.115c1.32 3.593-.533 7.58-4.12 8.9-17.587 6.464-43.12 10.17-70.053 10.17" class="E"/><defs ><path id="B" d="M513.14 387.7h-17.323v-7.145h17.323c1.717 0 3.11 1.393 3.11 3.112v.923a3.11 3.11 0 0 1-3.111 3.111"/><path id="C" d="M513.14 401.98h-17.323v-7.145h17.323a3.11 3.11 0 0 1 3.111 3.111v.923c0 1.72-1.393 3.112-3.11 3.112"/></defs></svg>