<svg xmlns="http://www.w3.org/2000/svg" width="78.059" height="61.319" viewBox="0 0 73.18 57.487"><path d="M63.818 19.466c-1.837-5.383-5.308-10.2-9.864-13.657C49.252 2.24 43.697.246 37.82 0c3.212 1.943 6.33 4.84 7.132 7.744.7 2.523.372 5.168-.92 7.445s-3.39 3.917-5.913 4.615c-.724.2-1.45.296-2.167.296-3.563 0-6.84-2.365-7.835-5.96-1-3.608 1.124-7.356 4.732-8.353 1.47-.408 3.015-.217 4.344.536a5.68 5.68 0 0 1 2.692 3.449 4.83 4.83 0 0 1-.456 3.692c-.64 1.13-1.68 1.943-2.933 2.288a4.18 4.18 0 0 1-2.871-.236c-.717-.333-1.03-1.185-.696-1.903s1.185-1.03 1.903-.696a1.3 1.3 0 0 0 .9.075c.515-.143.943-.476 1.204-.94s.33-1.003.188-1.516c-.42-1.516-1.995-2.408-3.51-1.988a3.93 3.93 0 0 0-2.736 4.828 5.27 5.27 0 0 0 6.476 3.668 6.88 6.88 0 0 0 4.185-3.265 6.89 6.89 0 0 0 .651-5.269c-.403-1.456-1.897-3.235-4.1-4.883-2.005-1.5-4.373-2.69-6.032-3.033a1.43 1.43 0 0 1-.463-.185c-4.476.78-8.685 2.605-12.37 5.4-4.556 3.457-8.027 8.275-9.864 13.657C4.21 19.4 0 23.6 0 28.73a9.28 9.28 0 0 0 9.265 9.265h.096c1.837 5.383 5.308 10.2 9.864 13.657a28.49 28.49 0 0 0 17.365 5.833c6.33 0 12.335-2.016 17.364-5.833 4.556-3.457 8.027-8.275 9.864-13.657h.096a9.28 9.28 0 0 0 9.265-9.265 9.27 9.27 0 0 0-9.361-9.265" fill="#facf46"/><path d="M36.6 49.602c-4.437 0-8.62-2.675-11.475-7.337a1.43 1.43 0 0 1 .475-1.969c.673-.412 1.556-.2 1.97.473 2.32 3.793 5.615 5.968 9.03 5.968s6.7-2.175 9.032-5.968a1.43 1.43 0 0 1 2.443 1.496c-2.855 4.663-7.037 7.337-11.476 7.337m-9.423-22.786c-1.055 0-1.913.86-1.913 1.915s.86 1.913 1.913 1.913a1.92 1.92 0 0 0 1.915-1.913 1.92 1.92 0 0 0-1.915-1.915m18.847 0c-1.056 0-1.913.86-1.913 1.915s.857 1.913 1.913 1.913a1.92 1.92 0 0 0 1.915-1.913 1.92 1.92 0 0 0-1.915-1.915" fill="#f2595b"/><path d="M43.144 56.738c8.3-5.703 13.745-15.26 13.745-26.093 0-10.77-5.383-20.28-13.604-25.993C42.152 3.2 40.6 1.863 38.972.742c-.005-.004-.01-.008-.017-.012s-.015-.01-.023-.015-.015-.01-.023-.016c-.332-.225-.652-.43-.973-.628C37.922.06 37.91.055 37.9.05c-.024-.014-.032-.02-.04-.024L37.82 0c5.877.245 11.432 2.24 16.135 5.808 4.556 3.457 8.027 8.275 9.864 13.657h.097a9.27 9.27 0 0 1 9.264 9.265 9.28 9.28 0 0 1-9.265 9.265h-.096c-1.837 5.383-5.308 10.2-9.864 13.657l-.067.05c-.01.007-.02.013-.028.02s-.027.02-.04.03l-.032.024c-.012.01-.024.02-.036.027l-.033.025-.06.045c-.01.008-.023.016-.033.025s-.024.017-.036.025l-.032.024c-.015.01-.028.02-.04.03-.01.005-.02.013-.027.02-.023.017-.047.033-.068.05l-.072.05c-.007.004-.012.01-.02.013l-.06.044a28.45 28.45 0 0 1-10.124 4.578" fill="#e7c348"/></svg>