<svg xmlns="http://www.w3.org/2000/svg" xmlns:xlink="http://www.w3.org/1999/xlink" width="77.741" height="66.164" viewBox="0 0 72.883 62.03"><path d="M13.104 28.467L8.74 17.027c-.213-.555-.745-.92-1.34-.92h-5.97c-.79 0-1.432.64-1.432 1.432s.64 1.432 1.432 1.432h4.98l4.015 10.52c.217.57.76.923 1.34.923a1.43 1.43 0 0 0 .509-.095c.74-.283 1.11-1.11.828-1.85" fill="#405467"/><path d="M53.66.11c-.35-.147-.747-.148-1.1-.003a1.43 1.43 0 0 0-.777.776L40.38 28.43c-.183.44-.133.947.132 1.344s.713.636 1.192.636H71.45a1.43 1.43 0 0 0 1.432-1.432A31.21 31.21 0 0 0 53.66.111" fill="#d1d9e6"/><path d="M71.45 27.546H11.765c-.79 0-1.432.64-1.432 1.432 0 17.244 14.03 31.275 31.275 31.275s31.275-14.03 31.275-31.275a1.43 1.43 0 0 0-1.432-1.432" fill="#6cc7f0"/><use xlink:href="#B" fill="#3e5366"/><path d="M72.883 28.978a1.43 1.43 0 0 0-1.432-1.432h-7.57A31.19 31.19 0 0 0 50.723 3.448l1.06-2.564a1.43 1.43 0 0 1 .777-.776A1.44 1.44 0 0 1 53.108 0a1.41 1.41 0 0 1 .552.111 31.21 31.21 0 0 1 19.223 28.867" fill="#c2cad7"/><path d="M64.907 49.818c-1.372-1.673-3.456-2.743-5.784-2.743a7.49 7.49 0 0 0-1.044.073c3.672-5.125 5.835-11.4 5.835-18.17 0-.48-.01-.957-.032-1.432h7.57a1.43 1.43 0 0 1 1.432 1.432v.236c0 .02 0 .037-.001.056v.097c-.001.015-.001.03-.001.044v.053c-.001.015-.001.03-.001.044s0 .036-.001.053v.045c-.001.016-.001.035-.001.052s-.001.03-.001.044 0 .035-.001.052 0 .03-.001.047 0 .033-.001.048 0 .033-.001.05 0 .03-.001.045 0 .036-.001.053-.001.027-.001.04-.001.036-.001.055c-.001.012-.001.025-.001.04l-.013.313c0 .01-.001.017-.001.027l-.004.07v.023l-.004.07c-.001.008-.001.016-.001.025l-.004.07c0 .008-.001.013-.001.023l-.004.07c0 .008-.001.016-.001.024l-.004.073a1.55 1.55 0 0 0-.006.095l-.006.095-.007.095c-.504 7.126-3.405 13.595-7.897 18.612" fill="#66bae4"/><use xlink:href="#B" x="35.245" y="-0.051" fill="#3e5366"/><defs ><path id="B" d="M24.095 47.075a7.49 7.49 0 0 0-7.477 7.477 7.49 7.49 0 0 0 7.477 7.477 7.49 7.49 0 0 0 7.477-7.477 7.49 7.49 0 0 0-7.477-7.477"/></defs></svg>