<svg xmlns="http://www.w3.org/2000/svg" xmlns:xlink="http://www.w3.org/1999/xlink" viewBox="0 0 1400 980"><style><![CDATA[.B{fill:#ffa172}.C{fill:#ffe2c2}.D{fill:#5ba19a}.E{fill:#92c9c2}.F{fill:#ffceb3}.G{fill:#ffb572}.H{fill:#ffdb74}.I{fill:#ff8872}.J{fill:#9ba1af}]]></style><path fill="#79c9ae" d="M0 0h1400v759H0z"/><path fill="#65bf9f" d="M0 379.5L387.8 94.8c22.9-16.8 54.3-16.3 76.6 1.4l275.3 217.6c21.6 17.1 51.8 18.2 74.7 2.7l74.8-50.7c23.2-15.7 54-14.3 75.7 3.5l290.3 239.3c23.1 19.1 56.4 19.3 79.8.5l65-52.2v270.8H0V379.5z"/><path d="M331.1 535.7l-139-121.9c-5.6-4.9-14.1-4.9-19.6.1l-136 121.9c-10.1 9.1-3.7 25.8 9.9 25.8h38V687H74c-11.2 0-20.3 9.1-20.3 20.3v20.3h256.7v-20.3c0-11.2-9.1-20.3-20.3-20.3H280V561.6h41.3c13.7 0 20.1-16.9 9.8-25.9z" class="D"/><g class="E"><use xlink:href="#B"/><path d="M236.2 621.8H216a12.76 12.76 0 0 1-12.8-12.8v-31.9a12.76 12.76 0 0 1 12.8-12.8h20.2a12.76 12.76 0 0 1 12.8 12.8V609a12.76 12.76 0 0 1-12.8 12.8z"/></g><path d="M579.2 535.7l-139-121.9c-5.6-4.9-14.1-4.9-19.6.1L284.7 535.8c-10.1 9.1-3.7 25.8 9.9 25.8h38V687h-10.4c-11.2 0-20.3 9.1-20.3 20.3v20.3h256.7v-20.3c0-11.2-9.1-20.3-20.3-20.3h-10.1V561.6h41.3c13.6 0 20-16.9 9.7-25.9z" class="D"/><use xlink:href="#C" fill="#79ba9a"/><use xlink:href="#C" x="85.5" class="E"/><path d="M827.4 535.7l-139-121.9c-5.6-4.9-14.1-4.9-19.6.1l-136 121.9c-10.1 9.1-3.7 25.8 9.9 25.8h38V687h-10.4c-11.2 0-20.3 9.1-20.3 20.3v20.3h256.7v-20.3c0-11.2-9.1-20.3-20.3-20.3h-10.1V561.6h41.3c13.7 0 20.1-16.9 9.8-25.9z" class="D"/><g class="E"><path d="M647 621.8h-20.2A12.76 12.76 0 0 1 614 609v-31.9a12.76 12.76 0 0 1 12.8-12.8H647a12.76 12.76 0 0 1 12.8 12.8V609a12.76 12.76 0 0 1-12.8 12.8z"/><use xlink:href="#B" x="581.8"/></g><path d="M1075.6 535.7l-139-121.9c-5.6-4.9-14.1-4.9-19.6.1L781 535.8c-10.1 9.1-3.7 25.8 9.9 25.8h38V687h-10.4c-11.2 0-20.3 9.1-20.3 20.3v20.3h256.7v-20.3c0-11.2-9.1-20.3-20.3-20.3h-10.1V561.6h41.3c13.7 0 20-16.9 9.8-25.9z" class="D"/><path d="M895.2 621.8H875a12.76 12.76 0 0 1-12.8-12.8v-31.9a12.76 12.76 0 0 1 12.8-12.8h20.2a12.76 12.76 0 0 1 12.8 12.8V609c-.1 7.1-5.8 12.8-12.8 12.8zm85.5 0h-20.2a12.76 12.76 0 0 1-12.8-12.8v-31.9a12.76 12.76 0 0 1 12.8-12.8h20.2a12.76 12.76 0 0 1 12.8 12.8V609c0 7.1-5.8 12.8-12.8 12.8z" class="E"/><path fill="#6fbf9a" d="M0 723.9h1400V759H0z"/><path fill="#5bc4ae" d="M0 756.8h1400v222.8H0z"/><path d="M592.2 878.8H433.7c-13.8 0-25-11.2-25-25s11.2-25 25-25h158.5c13.8 0 25 11.2 25 25-.1 13.8-11.2 25-25 25zm807.8-7.3h-181.3c-13.9 0-25.2 11.3-25.2 25.2s-11.3 25.2-25.2 25.2h-153.6v55.8H1400V871.5z" fill="#5bb5ae"/><path d="M1400 790.2h-206.5s28-58.5 56.7-46c28.7 12.6 29.9-1.8 29.9-1.8s-4.4-34.6 16.6-30.9c21 3.8 24.8 15.4 24.8 15.4s-14-37.4 12.5-30.2c26.4 7.2 30.2 23 30.2 23s1.3-43.4 35.8-43.4v113.9zM0 756.8s43-84.8 85-78.3 31.7 65.2 31.7 65.2 28.2-67.4 52-26.7-12.2 73.3-12.2 73.3 210.8-64.8 217.7 0 0 77.9 0 77.9 78.8-78.1 90.8-23.6c12 54.4 0 56.5 0 56.5s26-53.2 34-4.6-13.3 48-13.3 48 73.3-35.2 81.3-7.3 29.3 24.8 29.3 24.8 68.7-27.7 58.7 17.7H0V756.8z" fill="#79b088"/><path d="M677.8 747.9c-69.6-14.1-130.9-40.2-182.3-77.7-41.4-30.2-76.3-67.7-103.8-111.4-46.8-74.5-55.9-141.7-56.3-144.5l63.3-8.1v-.1c.1.6 8.2 58.2 48.5 121.1 53.1 83.1 135 136.4 243.3 158.3l-12.7 62.4z" class="F"/><path d="M228.8 314.9c-.5-.4-1-.7-1.4-1.1v23.3c0 16.2 13.1 29.2 29.2 29.2h57.3c7.5 0 13.5-6 13.5-13.5v-19c-.2.1-.5.1-.7.2-35.1 8.5-68.1 3.2-97.9-19.1z" class="C"/><path d="M227.4 267v46.7c.5.4 1 .7 1.4 1.1 29.8 22.3 62.8 27.7 97.9 19.1.2-.1.5-.1.7-.2V267h-100z" class="F"/><path d="M258.3 73.5s20.3-50.9-36.8-38.6-78.4 73.9-52.6 109.7-43.7 6.3-51.5 51.8 44.8 100.4 89.5 57.8 51.4-180.7 51.4-180.7zM438.1 176v98.7s-36-33.8-31.7-106.9l31.7 8.2z" class="B"/><ellipse cx="315.8" cy="196.5" rx="116.8" ry="117.5" class="C"/><g class="G"><path d="M366.8 105.4s-14.2 75.7-105.3 84-69.8-10.6-69.8-10.6-27.2-117.1 52.1-97c0 0 91.1-39 147.8 7.1s45.4 91.6 45.4 91.6-39.4-18.4-70.2-75.1z"/><path d="M221.3 191.4v83.3s-36-18.3-31.7-91.5l31.7 8.2z"/></g><circle cx="340.7" cy="196.5" r="10.4" class="B"/><g fill="#ffb5a9"><ellipse cx="326.7" cy="231.7" rx="11" ry="6.6"/><ellipse cx="406" cy="231.7" rx="11" ry="6.6"/></g><path d="M380.3 235.5c0 2-2.8 3.7-6.1 3.7-3.4 0-6.1-1.7-6.1-3.7s6.1-5 9.5-5c3.3 0 2.7 3 2.7 5z" class="G"/><g class="B"><circle cx="395.6" cy="196.5" r="10.4"/><path d="M368 282.7c-7.2 0-13.1-5.9-13.1-13.1a2.65 2.65 0 0 1 2.6-2.6 2.65 2.65 0 0 1 2.6 2.6c0 4.3 3.5 7.8 7.8 7.8s7.8-3.5 7.8-7.8a2.65 2.65 0 0 1 2.6-2.6 2.65 2.65 0 0 1 2.6 2.6 12.85 12.85 0 0 1-12.9 13.1zm-24 51.6h-10.9c-18.1 37.5-70.1 12.5-103 .1-39.4 1.2-71 33.4-71 73.1l50.2 210.8-68.6 361.3h292l-32.6-366.7 17.1-205.4c-.1-40.4-32.8-73.2-73.2-73.2z"/></g><path d="M333.1 334.3H232.2l-2.2.1c33 12.5 84.9 37.4 103.1-.1z" class="C"/><g class="B"><circle cx="306.6" cy="473.1" r="63"/><circle cx="363.7" cy="478.3" r="63"/></g><path d="M659.3 678.6s89.3-6.3 89.3 70.2-160.6 64.9-89.3-70.2z" class="F"/><path d="M195.5 344.2S295 399.9 282.7 536c-12.3 136.2-103 237.6-103 237.6l-7 37.1 48-3.8c11.9-.9 21.8 9.2 20.4 21.1L231 917.3c-1.9 16.7 11.2 31.3 28 31.3h168.3c9.7 0 17.6-7.9 17.5-17.7-.8-85.5-8.2-458.2-78.2-593.3l-22.5-3.5s38.5 52.9-3.2 56.1S221.5 335 221.5 335s-16.3 2.4-26 9.2z" class="H"/><path d="M231.4 428.6c-4.3-15.2-19.1-25-34.8-23-19.3 2.5-32 21.5-26.7 40.2 6.8 24.3 19 58.5 40.4 95.5 15.4-15.2 32.1-29.2 49.5-42.4-14.7-27.4-23.4-52.5-28.4-70.3z" class="B"/><path d="M273.8 522.8c-5.2-8.1-9.8-16.1-14-23.9-17.3 13.1-34.1 27.2-49.5 42.4 2.5 4.4 5.2 8.8 8 13.2 27.5 43.7 62.4 81.2 103.8 111.4 51.4 37.5 112.7 63.7 182.3 77.7l12.7-62.5c-108.3-21.9-190.2-75.2-243.3-158.3z" class="C"/><path fill="#fff" d="M321 419.8h74.9c6.4 0 11.7 4.8 12.3 11.2l6.2 61.5c1.5 15.2-10.4 28.3-25.6 28.3H381c-16 0-30.8-8.8-38.4-22.8l-32.5-59.7c-4.5-8.4 1.5-18.5 10.9-18.5z"/><path d="M176.2 163.3s-26.6-43.1-61.7-31.9l61.7 31.9z" class="B"/><path d="M116.7 205.3s37.1-41.1 79.6-23.4l-79.6 23.4z" class="G"/><path d="M789.7 986l-45.6-165.4c-7.9-28.7-34.2-48.8-64-48.8H527.7v-47.9h152.4c51.2 0 96.5 34.5 110.1 83.9l45.6 171.8-46.1 6.4z" class="I"/><path d="M724 793s18.6-72.9-2.7-75-26.5 25.7-26.5 25.7 1-32.1-25.6-25.9-34.4 19.5-34.4 19.5l60 58.8s7 2.5 29.2-3.1z" class="F"/><path d="M704.3 986l-45.6-165.4c-7.9-28.7-34.2-48.8-64-48.8H466.2c-13.2 0-23.9-10.7-23.9-23.9S453 724 466.2 724h128.5c51.2 0 96.5 34.5 110.1 83.9l45.6 171.8-46.1 6.3z" class="B"/><path d="M504 678.6s89.3-6.3 89.3 70.2-160.6 64.9-89.3-70.2z" class="C"/><g class="B"><path d="M951.2 741.8h126.4c3.2-7.3 6.3-13.9 9.2-19.8 7.3-15-3.6-32.4-20.2-32.4H881c-164.3 0-176.1 294.5-176.1 294.5l70.3-1.4c1.2-19.6 18.9-240.9 176-240.9z"/><path d="M1053.5 741.8c-22.6 51.2-51.4 135.9-51.4 235.9l-226.9 4.5v.5l251-5c0-100.1 28.8-184.8 51.4-235.9h-24.1z"/></g><path d="M1053.5 741.8H951.2c-155.9 0-174.5 218-176 240.4l226.9-4.5c-.1-100 28.7-184.7 51.4-235.9z" class="I"/><path fill="#ffc4c2" d="M936.2 948.8c5.2-2.6 8.1-7.4 9.7-13.1-9.4-.5-40.5-.2-54.4 0 12.7 11.8 28.3 22.2 44.7 13.1z"/><g class="C"><circle cx="918.4" cy="874" r="70.5"/><circle cx="855.7" cy="892.4" r="18.9"/><circle cx="978.6" cy="855.1" r="18.9"/></g><g class="J"><circle cx="920.8" cy="855.1" r="5.3"/><circle cx="961.2" cy="849.8" r="5.3"/></g><path d="M952.4 901.1c-4 0-7.3-3.3-7.3-7.3 0-1.1.9-2 2-2s2 .9 2 2a3.33 3.33 0 0 0 3.3 3.3 3.33 3.33 0 0 0 3.3-3.3c0-1.1.9-2 2-2s2 .9 2 2c0 4-3.2 7.3-7.3 7.3zm5.3-27.6c0 2.9-2.4 0-5.3 0s-5.3 2.9-5.3 0a5.34 5.34 0 0 1 5.3-5.3 5.34 5.34 0 0 1 5.3 5.3z" fill="#ffbfc2"/><path d="M866.9 825.8s25.2-39.1 48.6-35.3 38.3 13.9 38.3 13.9-42.2 16.8-52.8 15.2l10.1 6.3s-23 12.2-44.2 6.4c0 0-2.5 26.5-17.7 28.2s-12.6-44.9 17.7-34.7z" class="J"/><g fill="#ffc4c2"><ellipse cx="915.6" cy="873.5" rx="15.1" ry="5.3"/><ellipse cx="975.8" cy="864.4" rx="10.8" ry="3.8"/></g><path d="M936.2 948.8c-16.4 9.1-31.9-1.2-44.8-13.1l-6.8.1s-1.7.4-4.4 1.8c12.2 13.1 26.5 26.9 45.4 23.9 13.5-2.4 19.3-13.6 20.9-25.8h-.6c-1.7 5.6-4.6 10.5-9.7 13.1z" class="C"/><path d="M947.2 935.8c-.2 0-.5 0-.7-.1-1.6 12.2-7.4 23.4-20.9 25.8-18.9 3-33.2-10.8-45.4-23.9-6.8 3.6-20.4 13.9-32.2 42h118.6c-.1 0-10-42.9-19.4-43.8z" class="J"/><path d="M937.1 984.1s36.2-6 51.8-31.9h183.7s13.5 8.4-18 27.4l-217.5 4.5z" class="B"/><path d="M1161.3 952.2h-10c0-11.2-9.1-20.2-20.2-20.2h-86.2c-11.2 0-20.2 9.1-20.2 20.2h-10c0-16.7 13.6-30.2 30.2-30.2h86.2c16.7 0 30.2 13.6 30.2 30.2z" class="I"/><circle fill="#fff" cx="1056.3" cy="927" r="14.7"/><circle cx="1092.3" cy="927" r="14.7" class="H"/><circle fill="#fff" cx="1128.4" cy="927" r="14.7"/><g class="H"><path d="M1294.9 342.8c0 78.3-63.5 191.7-141.7 191.7-78.3 0-141.7-113.5-141.7-191.7s63.5-141.7 141.7-141.7 141.7 63.4 141.7 141.7z"/><path d="M1165.6 549c0 6.9-5.6 12.4-12.4 12.4s-12.4-5.6-12.4-12.4 5.6-27.6 12.4-27.6 12.4 20.7 12.4 27.6z"/></g><path fill="#fff" d="M1188 318.5c0-21.8 17.7-39.5 39.5-39.5s39.5 17.7 39.5 39.5-17.7 87.5-39.5 87.5-39.5-65.7-39.5-87.5z"/><path fill="none" stroke="#ff8872" stroke-width="4" stroke-linecap="round" stroke-miterlimit="10" d="M1165.6 537.7h-1.6c-16.8 0-30.3 13.6-30.3 30.3v416.1"/><path fill="#5bb5ae" d="M1400 813.4h-183.3c-12.8 0-23.2-10.4-23.2-23.2H1400v23.2z"/><defs ><path id="B" d="M150.7 621.8h-20.2a12.76 12.76 0 0 1-12.8-12.8v-31.9a12.76 12.76 0 0 1 12.8-12.8h20.2a12.76 12.76 0 0 1 12.8 12.8V609a12.76 12.76 0 0 1-12.8 12.8z"/><path id="C" d="M398.9 621.8h-20.2a12.76 12.76 0 0 1-12.8-12.8v-31.9a12.76 12.76 0 0 1 12.8-12.8h20.2a12.76 12.76 0 0 1 12.8 12.8V609c-.1 7.1-5.8 12.8-12.8 12.8z"/></defs></svg>