<svg xmlns="http://www.w3.org/2000/svg" baseProfile="tiny" overflow="scroll" width="754.589" height="527.761"><style><![CDATA[.B{fill:#fdcc97}.C{fill:#fff}.D{fill:#ffe848}.E{fill:#f26a73}.F{fill:#ac6b4d}.G{fill:#fdf9ce}.H{fill:#9f8281}.I{fill:#a7d5a2}.J{fill-rule:evenodd}.K{fill:#c2da63}.L{fill:#2e2f15}.M{fill:#966d6b}.N{fill:#e7434d}]]></style><path d="M0 0h754.59v527.76H0z" fill-opacity="0" pointer-events="none" class="C"/><g transform="scale(2.2458790891541414)"><g class="J"><path d="M0 0h336v235.2H0V0z" fill="#d0e7c4"/><path d="M0 143.8h336v91.4H0v-91.4zM32 18.4h98a2.69 2.69 0 1 1 0 5.4H32a2.69 2.69 0 1 1 0-5.4" class="I"/><path d="M41 23.9h80.1a2.7 2.7 0 1 1 0 5.4H41a2.69 2.69 0 0 1-2.7-2.7c-.1-1.5 1.2-2.7 2.7-2.7m0 82.9h80.1a2.7 2.7 0 1 1 0 5.4H41a2.69 2.69 0 0 1-2.7-2.7c-.1-1.5 1.2-2.7 2.7-2.7" class="F"/><path d="M40.1 112.3h82.2v5.5H40.1v-5.5z" class="I"/><path d="M78.3 106.8V29.4h-7.7c-1.5 25.8-11.9 49.2-27 64.3h.6c.9 0 1.7.8 1.7 1.7s-.8 1.7-1.7 1.7h-2.1l.4 9.6h35.8zm5.5-77.4v77.4h35.7l.4-9.6h-2.1c-.9 0-1.7-.8-1.7-1.7s.8-1.7 1.7-1.7h.6c-15.1-15.1-25.5-38.5-27-64.3h-7.6z" class="H"/><path d="M30.2 14.9h101.7a2.69 2.69 0 0 1 2.7 2.7 2.69 2.69 0 0 1-2.7 2.7H30.2a2.69 2.69 0 0 1-2.7-2.7c-.1-1.5 1.2-2.7 2.7-2.7" class="F"/><path d="M95.2 72.4c2.8 1.8 4.7 5 4.7 8.6 0 5.6-4.6 10.2-10.2 10.2h-.1c1.6 1 3.5 1.6 5.5 1.6 5.6 0 10.2-4.6 10.2-10.2-.1-5.6-4.6-10.2-10.1-10.2" class="D"/><path d="M45.4 80.8l60.9-37.4V28.7L45.4 66.1v14.7zm0 11l60.9-37.4V49L45.4 86.5v5.3z" class="C"/><path d="M78.3 107.4V27.3a2.69 2.69 0 1 1 5.4 0v80.1a2.69 2.69 0 0 1-2.7 2.7c-1.4.1-2.7-1.2-2.7-2.7" class="F"/><path d="M34.6 93.7l7.5 3.4 1.6 33h-9.1zm0-75.7h36.1c1.4 30.1-9.7 58.4-27 75.7h-9V18z" class="D"/><path d="M34.2 93.7h10c.9 0 1.7.8 1.7 1.7s-.8 1.7-1.7 1.7h-10c-.9 0-1.7-.8-1.7-1.7s.8-1.7 1.7-1.7" class="F"/><path d="M127.5 93.7l-7.5 3.4-1.5 33h9zm0-75.7H91.4c-1.4 30.1 9.7 58.4 27 75.7h9V18z" class="D"/><path d="M127.9 93.7h-10c-.9 0-1.7.8-1.7 1.7s.8 1.7 1.7 1.7h10c.9 0 1.7-.8 1.7-1.7s-.7-1.7-1.7-1.7m27.6-34.8h67.3c.9 0 1.7.8 1.7 1.7s-.8 1.7-1.7 1.7h-67.3c-.9 0-1.7-.8-1.7-1.7s.8-1.7 1.7-1.7m20.7-10.7v9.1a1.58 1.58 0 0 1-1.6 1.6h-9a1.58 1.58 0 0 1-1.6-1.6v-9.1c0 .3 2.7.5 6.1.5s6.1-.3 6.1-.5" class="F"/><path fill="#c0c190" d="M170.1 47.7c3.4 0 6.1.2 6.1.5s-2.7.5-6.1.5-6.1-.2-6.1-.5 2.8-.5 6.1-.5"/><path d="M170 41.6l.7 1.3.7 1.2h-2.9l.7-1.2z" class="B"/><path d="M169.4 43.5a.65.65 0 0 0 .6.6.65.65 0 0 0 .6-.6.65.65 0 0 0 .6.6h.2v4.6h-2.9v-4.6h.2c.4 0 .7-.3.7-.6" class="K"/><path d="M170.3 42.2l-.3-.6-.3.6c.1.1.2.1.3.1s.2 0 .3-.1" class="L"/><path d="M162.3 39.5l2.2 1.8-1.4.5-1.3.5.2-1.4z" class="B"/><path d="M162.4 41.5c.1.3.5.5.8.4s.5-.5.4-.8c.1.3.5.5.8.4.1 0 .1-.1.2-.1l2.8 7.3c-1.9-.1-3.1-.2-3.2-.4l-2.2-5.9h.2c.1-.3.3-.6.2-.9" class="D"/><path d="M162.8 39.9l-.5-.4-.1.7h.3l.3-.3" class="L"/><path d="M165.9 38.5l2 2-2.8.8.4-1.4z" class="B"/><path d="M165.8 40.5c.1.3.4.5.7.4s.5-.4.4-.7c.1.3.4.5.7.4.1 0 .1 0 .2-.1l2.1 8.1c-1.1 0-2.1 0-3-.1l-1.9-7.4h.2c.4 0 .6-.3.6-.6" class="E"/><path d="M166.4 39l-.5-.5-.2.6h.3c.2 0 .3 0 .4-.1" class="L"/><path d="M181 34.7h9.2v24.2H181V34.7z" class="K"/><path d="M182.3 36.4h6.7v8.9h-6.7v-8.9zm0 19.6h6.7v1.6h-6.7V56z" class="G"/><path d="M190.3 34.7h9.2v24.2h-9.2V34.7z" class="D"/><path d="M191.5 36.4h6.7v8.9h-6.7v-8.9zm0 19.6h6.7v1.6h-6.7V56z" class="G"/><path d="M199.5 34.7h9.2v24.2h-9.2V34.7z" class="E"/><path d="M200.7 36.4h6.7v8.9h-6.7v-8.9zm0 19.6h6.7v1.6h-6.7V56z" class="G"/><path d="M156.4 62.3h67.3c.9 0 1.7.8 1.7 1.7s-.8 1.7-1.7 1.7h-67.3c-.9 0-1.7-.8-1.7-1.7 0-1 .7-1.7 1.7-1.7" class="I"/><path d="M155.5 97.2h67.3c.9 0 1.7.8 1.7 1.7s-.8 1.7-1.7 1.7h-67.3c-.9 0-1.7-.8-1.7-1.7 0-1 .8-1.7 1.7-1.7" class="F"/><path d="M181 73h9.2v24.2H181V73z" class="K"/><path d="M182.3 74.7h6.7v8.9h-6.7v-8.9zm0 19.5h6.7v1.6h-6.7v-1.6z" class="G"/><path d="M190.3 73h9.2v24.2h-9.2V73z" class="D"/><path d="M191.5 74.7h6.7v8.9h-6.7v-8.9zm0 19.5h6.7v1.6h-6.7v-1.6z" class="G"/><path d="M199.5 73h9.2v24.2h-9.2V73z" class="E"/><path d="M200.7 74.7h6.7v8.9h-6.7v-8.9zm0 19.5h6.7v1.6h-6.7v-1.6z" class="G"/><path d="M156.4 100.5h67.3c.9 0 1.7.8 1.7 1.7s-.8 1.7-1.7 1.7h-67.3c-.9 0-1.7-.8-1.7-1.7s.7-1.7 1.7-1.7" class="I"/><path d="M86.6 160.9c4.3 0 7.8 3.5 7.8 7.8s-3.5 7.8-7.8 7.8-7.8-3.5-7.8-7.8c0-4.4 3.5-7.8 7.8-7.8" class="E"/><path d="M54.2 200.4c5.3 0 9.6 4.3 9.6 9.6s-4.3 9.6-9.6 9.6-9.6-4.3-9.6-9.6 4.3-9.6 9.6-9.6" class="D"/><path fill="#59c5c7" d="M131 201c4.3 0 7.8 3.5 7.8 7.8s-3.5 7.8-7.8 7.8-7.8-3.5-7.8-7.8 3.5-7.8 7.8-7.8"/><path fill="#99d098" d="M275.3 205.4c15.9 0 28.8 1.8 28.8 4s-12.9 4-28.8 4-28.8-1.8-28.8-4 12.9-4 28.8-4"/><path d="M282.1 64.2l-6.6 2.9-.5-8.6c-10.1 0-8.8-12.1-8.8-12.1l13.5-.7c.2-.1.4-.1.6-.1 1.4-.1 2.5 1 2.6 2.4 0 1.1-.6 2-1.6 2.4l.8 13.8z" class="B"/><g class="E"><path d="M279.8 45.8c-1.1 1.5-8.7 2.2-13.6 1.3-2.6-.5-4.4-1.5-4.1-3.2.4-2.1 3.5-5.8 7.4-8 11.7-6.8 21.7 5.3 12.1 18.1l-.2-3.5c1-.4 1.6-1.3 1.6-2.4-.1-1.4-1.2-2.4-2.6-2.4-.2 0-.5 0-.6.1"/><path d="M281.3 35.4c6.7-8.6 16.2.2 11.5 9.7-2.6 5.1-1.5 12.7 2.2 12.8-2 0-10.4-.7-9-13.5 0 0 1.1-6.7-1.7-5.5-.6-1.4-1.7-2.6-3-3.5"/></g><path d="M281.9 34.7s2.6 1.9 2.9 4.2c-.1 0-.3.1-.5.1-.7-1.5-1.8-2.7-3-3.6.2-.2.4-.5.6-.7" class="H"/><path d="M273.8 157.8s.1-14.2-.7-26.4c-.5-6.8-2.3-12.9-1.9-15.7.6-17.5-8.5-9.1-10.7.7-3.5 15.6 3.8 42.8 3.8 42.8l.8 42 7.4-.9 1.9-28.5-.6-14z" class="M"/><path fill="#fdc487" d="M272.5 200.4s3.8 4.8.7 6.4c-.9.4-4 .5-5.6.7-4.3.6-8.6.9-11.2.7-9.7-.7 8.3-5.3 8.8-6.9l7.3-.9z"/><path d="M261.5 203.2c-1.1 1.7-1.1 2.7 5.8 2.1 6.9-.7 5.8-4 5.8-4 .9 1.5 2.3 4.3.1 5.4-.9.4-4 .5-5.6.7-4.3.6-8.6.9-11.2.7-7-.4.3-2.9 5.1-4.9" class="N"/><path d="M275.9 202.6s.9 8.6 4.5 10.1 4.4-10.8 4.4-10.8l-8.9.7z" class="B"/><path d="M282.4 207.8c-.8-.8-3-.6-3.5.3-.9-1.3-2.1-5.6-2.1-5.6l-.9.1s.9 8.6 4.5 10.1 4.4-10.8 4.4-10.8l-.8.1c-.4 4.4-1.6 5.8-1.6 5.8" class="E"/><path d="M286 110.7l-20.2-5.7c4.7 16.2 7.3 35.4 8.1 52.8l.6 14 1.4 30.8 8.9-.8c-.9-7.1-1.7-42.4-1.7-42.4 7.1-35.4 2.9-48.7 2.9-48.7" class="H"/><path fill="#59c5c7" d="M284.4 75.8c-.3 2.1-.4 4.4-.4 6.8l-.1 6.3c1.1-.5 1.9-1.2 2-2.4.5-5.5-1.3-6.2-1.5-10.7m-22.5 36.5s7.7-19.5 4.9-23.8-2.4-9.9 1.7-13.6c2.6-2.3 1.7-5.8 2.4-8.2 1.3-4.4 5.6-2.9 11.2-3.4 13.4-1.2 9.3 25 7.9 27.3-1.2 1.9-3.6 2.9-6.3 3.3-.2 5.9-.2 11 2.3 16.8l-13.8 2.2-5.7-5.4-4.6 4.8z"/><path fill="#2ebdbb" d="M269.8 93s7 3.3 13.9 1.9v-1.1c-6.1 1-13.9-.8-13.9-.8"/><g class="B"><path d="M269.8 88.1c1.4-.1 2.5 1 2.6 2.4s-1 2.5-2.4 2.6-2.5-1-2.6-2.4c0-1.4 1-2.6 2.4-2.6"/><path d="M270.7 87.4c.7 0 1.2.5 1.2 1.1 0 .7-.5 1.2-1.1 1.2-.7 0-1.2-.5-1.2-1.1-.1-.6.4-1.2 1.1-1.2"/></g><g class="D"><path d="M279.5 76.4c3.8-.2 6.9 2.8 7.1 6.5.2 3.8-2.8 6.9-6.5 7.1-3.8.2-6.9-2.8-7.1-6.5-.1-3.7 2.8-6.9 6.5-7.1"/><path d="M269.3 84.3s2.6-3.2 6.9-3.3c-.1-.9-.1-1.8 0-2.6 0 0-4.9-1.1-9.4 4.2l2.5 1.7z"/></g><path d="M277.3 95.4c-4.3-2.9-.8-6.2-.8-6.2a6.59 6.59 0 0 1-2.3-2.1c-5.7 5.2 1.2 10.8 1.2 10.8l1.9-2.5zm6.3-6.5c-2-1.7.7-4 .7-4-.1.7-.3 1-.3 1l1.7.7a6.59 6.59 0 0 1-2.1 2.3" class="B"/><path d="M284.5 83.9c-5.1-1.3-9.2.3-9.2.3l.4 2s2.7 1.1.9 3c1.1.6 2.3.9 3.6.9 1.3-.1 2.5-.5 3.5-1.2-1.9-1.7.6-3.5.4-3 0 0 .3-.8.4-2" class="C"/><g class="B"><path d="M277.3 95.4s1.7 1.5-.4 3.5c-2.1 1.9-2.6 1-1.5-1 1-1.9 1.9-2.5 1.9-2.5m6-.2s-1.5 1.7.7 3.4c2.2 1.8 2.6.7 1.5-1.1-1.2-1.8-2.2-2.3-2.2-2.3m-15.6-13c.9 0 1.6.6 1.7 1.5 0 .9-.6 1.6-1.5 1.7-.9 0-1.6-.6-1.7-1.5s.6-1.6 1.5-1.7"/><path d="M268.8 83.8c.4 0 .8.3.8.8 0 .4-.3.8-.8.8-.4 0-.8-.3-.8-.8s.3-.8.8-.8"/></g><path d="M290.8 83.4s-2.8-3-7.1-2.8c.1-.9 0-1.8-.2-2.6 0 0 4.8-1.5 9.7 3.4l-2.4 2z" class="D"/><g class="B"><path d="M292.2 81.2c-.9 0-1.6.8-1.5 1.7 0 .9.8 1.6 1.7 1.5.9 0 1.6-.8 1.5-1.7 0-.8-.8-1.5-1.7-1.5"/><path d="M291.3 82.8c-.4 0-.8.4-.8.8s.4.8.8.8.8-.4.8-.8c0-.5-.4-.8-.8-.8"/></g><path d="M275.3 84.2s-1.6.6-2 1c.2.7.5 1.3.9 1.9l1.5-1s-.1-.2-.3-.8c0-.4-.1-.7-.1-1.1" class="C"/><path d="M276.5 89.2c1.9-1.9-.6-3.2-.8-3.1l-1.5 1a6.59 6.59 0 0 0 2.3 2.1" class="B"/><path d="M284.5 83.9s1.5.4 2 .8c-.1.7-.4 1.4-.8 2L284 86s.2-.3.3-1c.1-.4.2-.7.2-1.1" class="C"/><path d="M283.3 95.2c4-3.2.3-6.3.3-6.3a6.59 6.59 0 0 0 2.1-2.3c6.1 4.7-.3 10.9-.3 10.9l-2.1-2.3z" class="B"/><path d="M275.6 63.7l8.3-.3-.1-2.8-5.5.2c-1.6.1-2.8 1.4-2.7 2.9z" class="C"/><path d="M279.1 64.8c3.9-.2 7.3 1.9 8.3 5h.2c.8 0 1.4.6 1.5 1.4 0 .8-.6 1.4-1.3 1.5-.4 3.5-3.8 6.4-8.1 6.5-4.3.2-7.9-2.4-8.6-5.8-.8 0-1.4-.6-1.5-1.4 0-.8.6-1.4 1.4-1.5h.2c.8-3.1 4-5.5 7.9-5.7" class="B"/><path d="M279.2 67.6c2.8-.1 5.2 1.7 5.3 4.1s-2.1 4.4-4.9 4.6c-2.8.1-5.2-1.7-5.3-4.1s2.1-4.4 4.9-4.6" class="N"/><path d="M283.7 74.3c-.9 1.2-2.4 2-4.1 2.1-1.8.1-3.3-.6-4.3-1.7.9-1.2 2.4-2 4.1-2.1s3.3.5 4.3 1.7" class="E"/><path fill="#d32632" d="M279.3 69.7c1.3-.1 2.5 1.4 2.8 3.3-.8-.4-1.7-.6-2.7-.5-1 0-1.9.3-2.7.8.2-2 1.2-3.5 2.6-3.6"/><path d="M276.1 68.7v.9l1.1-.5v-1c-.4.1-.8.3-1.1.6m6.3-.3l.1.9-1.1-.4-.1-1c.3.1.7.3 1.1.5" class="C"/><path d="M279 63.4a.68.68 0 0 1 .7.7l.1 1.6a.68.68 0 1 1-1.4 0l-.1-1.6a.68.68 0 0 1 .7-.7" class="B"/><path d="M277.5 63.6l-3.7.2-.1-2.8h1c1.4-.1 2.7 1.1 2.8 2.6z" class="C"/><path fill="#99d098" d="M197.8 202.2c20.8 0 37.6 1.7 37.6 3.7s-16.9 3.8-37.6 3.8c-20.8 0-37.7-1.7-37.7-3.8s16.9-3.7 37.7-3.7"/><path d="M181.3 188.9c5.1 0 9.3 4.2 9.3 9.3s-4.2 9.3-9.3 9.3-9.3-4.2-9.3-9.3 4.1-9.3 9.3-9.3" class="H"/><path d="M181.3 193c2.9 0 5.2 2.3 5.2 5.2s-2.3 5.2-5.2 5.2-5.2-2.3-5.2-5.2c0-2.8 2.3-5.2 5.2-5.2" class="M"/></g><path d="M182.2 199.7c-.8.5-1.9.2-2.4-.6s-.2-1.9.6-2.4l27-16.4c.8-.5 1.9-.2 2.4.6s.2 1.9-.6 2.4l-27 16.4z" class="C"/><g class="J"><path d="M214.1 188.9c-5.1 0-9.3 4.2-9.3 9.3s4.2 9.3 9.3 9.3 9.3-4.2 9.3-9.3c.1-5.1-4.1-9.3-9.3-9.3" class="H"/><path d="M214.1 193c-2.9 0-5.2 2.3-5.2 5.2s2.3 5.2 5.2 5.2 5.2-2.3 5.2-5.2c0-2.8-2.3-5.2-5.2-5.2" class="M"/></g><path d="M213.2 199.7c.8.5 1.9.2 2.4-.6s.2-1.9-.6-2.4l-27-16.4c-.8-.5-1.9-.2-2.4.6s-.2 1.9.6 2.4l27 16.4z" class="C"/><g class="J"><path d="M160.6,153.4h74.7v11.3c0,10.5-8.6,19-19,19h-36.6c-10.5,0-19-8.6-19-19V153.4z" class="E"/><path d="M160.6 155.9h74.7c1.1 0 2 .9 2 2s-.9 2-2 2h-74.7c-1.1 0-2-.9-2-2s.9-2 2-2" class="C"/><path d="M197.9 155.9h-37.3c0-20.6 16.7-37.3 37.3-37.3v37.3z" class="E"/><path d="M197.6 152.8a3.01 3.01 0 0 1 3 3 3.01 3.01 0 0 1-3 3 3.01 3.01 0 0 1-3-3c-.1-1.6 1.3-3 3-3" class="N"/><path d="M197.6 154.4c.8 0 1.4.6 1.4 1.4s-.6 1.4-1.4 1.4-1.4-.6-1.4-1.4c-.1-.7.6-1.4 1.4-1.4" class="C"/></g></g></svg>