<svg xmlns="http://www.w3.org/2000/svg" width="67.094" height="66.217" viewBox="0 0 62.902 62.08"><path d="M61.47 0H1.785A1.43 1.43 0 0 0 .351 1.427c0 .8.64 1.44 1.433 1.44h7.303v25.267a1.43 1.43 0 0 0 2.865 0V2.867h18.24v48.707c0 .787.64 1.44 1.433 1.44s1.432-.653 1.432-1.44V2.867H51.3v25.267a1.43 1.43 0 0 0 2.865 0V2.867h7.303c.792 0 1.433-.64 1.433-1.44A1.43 1.43 0 0 0 61.469 0" fill="#d1d7e1"/><path d="M20.97 34c-.192-.587-.743-.987-1.363-.987h-5.9L11.882 27.4c-.192-.587-.74-.987-1.363-.987s-1.17.4-1.36.987l-1.824 5.613h-5.9c-.62 0-1.17.4-1.363.987a1.43 1.43 0 0 0 .521 1.6l4.775 3.467-1.824 5.613c-.192.6.02 1.24.52 1.6.503.373 1.18.373 1.684 0l4.773-3.467 4.775 3.467a1.41 1.41 0 0 0 .843.28c.295 0 .59-.093.84-.28a1.42 1.42 0 0 0 .52-1.6l-1.823-5.613L20.45 35.6a1.43 1.43 0 0 0 .521-1.6" fill="#95dcf8"/><path d="M41.93 42.933l-9.29-9.293c-.268-.267-.632-.427-1.012-.427s-.745.16-1.013.427l-9.29 9.293a1.42 1.42 0 0 0-.419 1.013c0 .373.15.733.42 1l9.29 9.293c.28.28.647.427 1.013.427s.732-.147 1.012-.427l9.29-9.293c.268-.267.42-.627.42-1a1.42 1.42 0 0 0-.419-1.013" fill="#f2515c"/><path d="M31.627 54.88a2.17 2.17 0 0 0-2.165 2.16 2.17 2.17 0 0 0 2.165 2.173 2.17 2.17 0 0 0 2.164-2.173 2.17 2.17 0 0 0-2.164-2.16m0 7.2c-2.775 0-5.03-2.267-5.03-5.04s2.255-5.027 5.03-5.027 5.03 2.253 5.03 5.027-2.257 5.04-5.03 5.04M10.52 22a2.17 2.17 0 0 0-2.164 2.16 2.17 2.17 0 0 0 2.164 2.173 2.17 2.17 0 0 0 2.165-2.173A2.17 2.17 0 0 0 10.519 22zm0 7.187c-2.772 0-5.03-2.253-5.03-5.027s2.257-5.027 5.03-5.027 5.03 2.253 5.03 5.027-2.257 5.027-5.03 5.027" fill="#6ecdad"/><path d="M33.06 34.053l-.42-.413c-.268-.267-.632-.427-1.012-.427V0h29.84a1.43 1.43 0 0 1 1.433 1.427c0 .8-.64 1.44-1.433 1.44h-7.303V19.32c-.507-.173-1.05-.267-1.615-.267a4.85 4.85 0 0 0-1.251.16V2.867H33.06v31.187" fill="#c1c7d3"/><path d="M53.87 44.427c-5.08 0-9.21-4.133-9.21-9.213v-.12c.001-.027.001-.04.001-.053v-.013c0-.013.001-.027.001-.053s.001-.04.001-.053c.001-.027.001-.04.003-.053v-.027c.001-.013.001-.027.001-.04l.002-.053c.002-.027.002-.04.004-.053s.001-.027.001-.027c0-.013.001-.027.001-.027.001-.04.004-.067.007-.093.217-2.96 1.826-5.52 4.17-7.053.92 1 2.237 1.627 3.697 1.627 1.885 0 3.532-1.04 4.393-2.587.512.187 1.01.413 1.485.68.016.013.03.013.046.027.44.253.715.733.715 1.24s-.273.987-.715 1.24a6.37 6.37 0 0 0 0 10.987c.44.253.715.733.715 1.24s-.273.987-.715 1.24a9.16 9.16 0 0 1-4.607 1.24" fill="#e7c348"/><path d="M31.627 62.08v-2.867a2.17 2.17 0 0 0 2.164-2.173 2.17 2.17 0 0 0-2.164-2.16v-2.867a5 5 0 0 1 2.545.693h-.004c1.427.84 2.408 2.373 2.483 4.12l.002.04v.013l.001.08.001.04v.04c0 2.773-2.257 5.04-5.03 5.04M52.55 29.12a5.01 5.01 0 0 1-3.697-1.627c-.796-.867-1.3-2.013-1.33-3.28v-.027l-.001-.04v-.133l.001-.013v-.04l.001-.027.001-.04.001-.027v-.013l.001-.027.001-.04.008-.107c.175-2.16 1.72-3.933 3.763-4.453v-.013a4.85 4.85 0 0 1 1.251-.16 4.98 4.98 0 0 1 1.615.267v.013c1.85.627 3.223 2.307 3.396 4.32l.003.027.005.067v.013.013.027l.002.04.001.027v.027l.002.053.001.04v.173l-.001.053a4.99 4.99 0 0 1-.637 2.32 5.02 5.02 0 0 1-4.4 2.587m0-7.2a2.17 2.17 0 0 0-2.164 2.173 2.17 2.17 0 0 0 2.164 2.16 2.17 2.17 0 0 0 2.164-2.16 2.17 2.17 0 0 0-2.164-2.173" fill="#65caaa"/></svg>