<svg xmlns="http://www.w3.org/2000/svg" xmlns:xlink="http://www.w3.org/1999/xlink" width="65.424" height="68.508" viewBox="0 0 61.335 64.227"><path d="M47.617 43.06V14.35h7.433v28.71h-7.433m-10.3-28.71h7.435v28.71h-7.435V14.35m-10.3 0h7.435v28.71h-7.435V14.35m-10.3 0h7.436v28.71h-7.436V14.35m-10.3 0h7.435v28.71H6.418V14.35M56.483 0c-.792 0-1.433.64-1.433 1.432v10.053H6.418V1.432C6.418.64 5.777 0 4.986 0a1.43 1.43 0 0 0-1.432 1.432v57.78a1.43 1.43 0 0 0 1.432 1.433c.79 0 1.432-.64 1.432-1.433V45.925H55.05v13.288c0 .792.64 1.433 1.433 1.433s1.432-.64 1.432-1.433V1.432c0-.79-.64-1.432-1.432-1.432" fill="#d0d7e3"/><path d="M4.94 57.137a2.08 2.08 0 0 0-2.077 2.076 2.08 2.08 0 0 0 2.077 2.076 2.08 2.08 0 0 0 2.076-2.076 2.08 2.08 0 0 0-2.076-2.076zm0 7.017A4.95 4.95 0 0 1 0 59.213c0-2.724 2.216-4.94 4.94-4.94s4.94 2.216 4.94 4.94-2.216 4.94-4.94 4.94" fill="#3e5366"/><path d="M56.483 43.06H4.986a1.43 1.43 0 0 0-1.432 1.433v6.984a1.43 1.43 0 0 0 1.432 1.432h51.497c.79 0 1.432-.64 1.432-1.432v-6.984c0-.792-.64-1.433-1.432-1.433" fill="#6cc7f0"/><path d="M55.05 54.484V52.91h1.433c.79 0 1.432-.64 1.432-1.432v3.007c-.453-.137-.935-.21-1.432-.21a4.94 4.94 0 0 0-1.433.211m2.865-9.99c0-.792-.64-1.433-1.432-1.433H55.05V14.35h-7.433v28.71H44.75V14.35h-.333v-2.865H55.05V1.432C55.05.64 55.69 0 56.483 0s1.432.64 1.432 1.432v43.06" fill="#c1c7d4"/><path d="M56.483 52.91H44.418v-9.85h12.065c.79 0 1.432.64 1.432 1.433v6.984c0 .79-.64 1.432-1.432 1.432" fill="#66bae4"/><use xlink:href="#B" fill="#405467"/><path d="M56.395 57.2a2.08 2.08 0 0 0-2.077 2.076 2.08 2.08 0 0 0 2.077 2.076 2.08 2.08 0 0 0 2.076-2.076 2.08 2.08 0 0 0-2.076-2.076zm0 7.017a4.95 4.95 0 0 1-4.941-4.941c0-2.724 2.216-4.94 4.94-4.94s4.94 2.216 4.94 4.94-2.216 4.94-4.94 4.94" fill="#3e5366"/><use xlink:href="#B" x="51.29" y="0.25" fill="#405467"/><defs ><path id="B" d="M5.065 61.52c-1.44 0-2.612-1.05-2.612-2.344s1.17-2.344 2.612-2.344 2.612 1.052 2.612 2.344-1.173 2.344-2.612 2.344"/></defs></svg>