<svg xmlns="http://www.w3.org/2000/svg" xmlns:xlink="http://www.w3.org/1999/xlink" height="1600" width="1600"><path d="M0 1600h1599.996V.004H0z" fill="#fff"/><g fill="#dcf6f7"><path d="M169.5 698.654c-22.996 0-23.036 35.74 0 35.74 22.997 0 23.035-35.74 0-35.74m732.664-343.1c-22.997 0-23.036 35.74 0 35.74 22.997 0 23.035-35.74 0-35.74M1105.9 695.082c-22.996 0-23.036 35.74 0 35.74 22.997 0 23.036-35.74 0-35.74"/><use xlink:href="#B"/><use xlink:href="#B" x="-21.443" y="654.036"/><path d="M905.747 633.43c-14.948 0-14.973 23.23 0 23.23 14.947 0 14.973-23.23 0-23.23m464.623 393.137c-14.96 0-14.973 23.232 0 23.232 14.947 0 14.96-23.232 0-23.232M548.35 829.105c-11.5 0-11.52 17.87 0 17.87 11.5 0 11.516-17.87 0-17.87"/><use xlink:href="#C"/><use xlink:href="#C" x="396.712" y="700.498"/><path d="M1466.863 500.3c-11.507 0-11.52 17.87 0 17.87 11.493 0 11.52-17.87 0-17.87"/></g><g fill="#b4e4ef"><path d="M169.5 698.654c-22.996 0-23.036 35.74 0 35.74 22.997 0 23.035-35.74 0-35.74m732.664-343.1c-22.997 0-23.036 35.74 0 35.74 22.997 0 23.035-35.74 0-35.74M1105.9 695.082c-22.996 0-23.036 35.74 0 35.74 22.997 0 23.036-35.74 0-35.74"/><use xlink:href="#B"/><use xlink:href="#B" x="-21.443" y="654.036"/><path d="M905.747 633.43c-14.948 0-14.973 23.23 0 23.23 14.947 0 14.973-23.23 0-23.23m464.623 393.137c-14.96 0-14.973 23.232 0 23.232 14.947 0 14.96-23.232 0-23.232M548.35 829.105c-11.5 0-11.52 17.87 0 17.87 11.5 0 11.516-17.87 0-17.87"/><use xlink:href="#C"/><use xlink:href="#C" x="396.712" y="700.498"/><path d="M1466.863 500.3c-11.507 0-11.52 17.87 0 17.87 11.493 0 11.52-17.87 0-17.87"/></g><path d="M755.223 337.28c-.993-2.033-2.62-3.92-4.7-4.9-2.228-1.052-4.757-.952-7.147-.7l-1.644.253c-.935-1.797-2.27-3.35-4.028-4.415-2.148-1.303-4.888-2.117-7.408-1.944-.92.06-1.833.255-2.712.552l-.483-.667c-1.12-1.45-2.364-2.735-3.92-3.7-1.376-.86-2.964-1.48-4.567-1.748-6.532-1.088-13.82 2.404-16.903 8.3a10.29 10.29 0 0 0-1.085 3.456 14.47 14.47 0 0 0-1.763.663c-3.12 1.428-6.093 3.835-7.764 6.868a10.79 10.79 0 0 0 .077 10.481c1.732 3.052 5.25 5.096 8.592 5.857 1.937.44 4.004.645 5.98.4a15.91 15.91 0 0 0 2.525-.525c1.47.705 3.02 1.24 4.595 1.704 1.137.337 2.32.432 3.5.503 1.25.076 2.48.047 3.708-.197 2.66-.528 4.996-1.848 6.97-3.7a8.79 8.79 0 0 0 .687-.72 8.66 8.66 0 0 0 .544.249c1.96.8 4.18 1.115 6.27 1.368 4.385.535 8.717-.065 12.744-1.888 1.992-.9 3.86-1.976 5.315-3.64 1.244-1.427 2.145-3.148 2.777-4.923.836-2.352.957-4.68-.163-6.977m265.457 86.446c-.96-2.17-2.587-4.208-4.724-5.32-2.292-1.2-4.944-1.185-7.457-1.008l-1.733.2c-.907-1.917-2.243-3.596-4.04-4.783-2.197-1.45-5.035-2.4-7.68-2.33a11.3 11.3 0 0 0-2.86.472l-.48-.717c-1.116-1.564-2.367-2.957-3.96-4.04a13.24 13.24 0 0 0-4.715-2.012c-6.795-1.397-14.567 1.968-18.028 8.023-.66 1.152-1.064 2.352-1.272 3.575a14.77 14.77 0 0 0-1.873.625c-3.32 1.37-6.532 3.773-8.4 6.883-2.012 3.344-2.117 7.544-.335 10.98 1.692 3.264 5.295 5.545 8.764 6.475 2.012.537 4.167.835 6.248.645.9-.08 1.793-.224 2.664-.45 1.5.8 3.112 1.417 4.744 1.97 1.177.396 2.415.54 3.644.664 1.304.128 2.595.147 3.9-.06 2.808-.447 5.305-1.736 7.444-3.597a9.65 9.65 0 0 0 .751-.728 9.12 9.12 0 0 0 .559.281c2.02.916 4.332 1.333 6.512 1.683 4.57.732 9.13.276 13.42-1.47 2.12-.865 4.12-1.917 5.708-3.603 1.36-1.444 2.372-3.2 3.103-5.044.97-2.43 1.2-4.864.108-7.312m25.636 250.56c-.993-2.035-2.62-3.92-4.696-4.9-2.23-1.053-4.76-.953-7.148-.7l-1.645.253c-.933-1.8-2.268-3.35-4.028-4.416-2.147-1.3-4.887-2.116-7.407-1.945a10.83 10.83 0 0 0-2.713.553l-.48-.667c-1.12-1.45-2.364-2.733-3.92-3.708a12.69 12.69 0 0 0-4.568-1.748c-6.53-1.088-13.82 2.4-16.903 8.3a10.28 10.28 0 0 0-1.084 3.455c-.603.185-1.195.404-1.764.664-3.117 1.425-6.093 3.835-7.764 6.868a10.8 10.8 0 0 0 .079 10.481c1.733 3.052 5.25 5.096 8.6 5.856 1.94.443 4.004.645 5.983.4a15.97 15.97 0 0 0 2.525-.524c1.47.705 3.02 1.24 4.593 1.705 1.137.337 2.323.43 3.5.5 1.25.077 2.48.047 3.7-.196 2.66-.528 4.997-1.848 6.97-3.7a9.81 9.81 0 0 0 .69-.72 8.29 8.29 0 0 0 .543.249c1.96.8 4.18 1.115 6.27 1.37 4.385.533 8.717-.067 12.745-1.888 2-.9 3.86-1.976 5.313-3.64 1.247-1.427 2.145-3.147 2.777-4.923.837-2.35.96-4.68-.163-6.976M498.104 501.44c-1.577-3.23-4.16-6.224-7.46-7.784-3.54-1.67-7.556-1.512-11.348-1.097a29.22 29.22 0 0 0-2.613.404c-1.484-2.855-3.603-5.32-6.396-7.013-3.412-2.068-7.76-3.363-11.764-3.087-1.464.1-2.912.404-4.307.876a25.16 25.16 0 0 0-.767-1.059c-1.78-2.304-3.755-4.34-6.227-5.888-2.187-1.368-4.708-2.353-7.253-2.777-10.372-1.727-21.947 3.816-26.843 13.184a16.29 16.29 0 0 0-1.723 5.487c-.96.293-1.897.64-2.8 1.055-4.952 2.265-9.677 6.1-12.33 10.905-2.855 5.18-2.772 11.547.123 16.645 2.752 4.848 8.34 8.095 13.645 9.3 3.077.7 6.36 1.025 9.5.62a25.21 25.21 0 0 0 4.011-.833c2.333 1.12 4.795 1.968 7.296 2.708 1.805.536 3.687.683 5.557.797 1.98.12 3.936.075 5.9-.312 4.227-.84 7.935-2.935 11.067-5.877a14.85 14.85 0 0 0 1.095-1.145 13.5 13.5 0 0 0 .861.395c3.112 1.272 6.637 1.77 9.957 2.175 6.965.848 13.845-.105 20.24-3 3.16-1.428 6.13-3.14 8.437-5.78 1.977-2.267 3.408-4.997 4.4-7.817 1.33-3.735 1.52-7.435-.26-11.08m676.295 45.03c-1.9-4.104-5.068-7.935-9.177-9.98-4.407-2.193-9.46-2.097-14.24-1.676a37.37 37.37 0 0 0-3.297.44c-1.788-3.627-4.4-6.78-7.86-8.98-4.235-2.688-9.67-4.43-14.7-4.188-1.844.088-3.67.435-5.437 1a28.93 28.93 0 0 0-.937-1.35c-2.176-2.943-4.607-5.556-7.675-7.565-2.715-1.776-5.86-3.08-9.05-3.68-12.995-2.44-27.692 4.227-34.1 15.88-1.22 2.22-1.952 4.516-2.308 6.852-1.212.345-2.4.76-3.548 1.255-6.284 2.72-12.324 7.404-15.785 13.4-3.723 6.44-3.785 14.445-.277 20.93 3.335 6.167 10.275 10.393 16.913 12.05 3.852.96 7.97 1.453 11.927 1.025 1.7-.184 3.4-.487 5.064-.944 2.904 1.47 5.977 2.597 9.103 3.595 2.256.72 4.617.953 6.967 1.145 2.5.204 4.948.196 7.413-.24 5.335-.945 10.052-3.484 14.067-7.103a18.69 18.69 0 0 0 1.405-1.409 16.92 16.92 0 0 0 1.075.517c3.88 1.68 8.296 2.397 12.46 2.993 8.735 1.245 17.4.225 25.527-3.245 4-1.715 7.8-3.787 10.76-7.05 2.545-2.797 4.415-6.195 5.748-9.713 1.768-4.66 2.107-9.307-.036-13.936M447.48 795.862c-1.905-4.752-5.263-9.273-9.8-11.83-4.855-2.74-10.577-2.93-16-2.735a42.66 42.66 0 0 0-3.755.301c-1.8-4.208-4.565-7.927-8.357-10.623-4.63-3.3-10.677-5.58-16.4-5.605-2.1-.008-4.177.275-6.208.8a35.28 35.28 0 0 0-.98-1.583c-2.288-3.456-4.88-6.556-8.235-9.008-2.963-2.17-6.444-3.83-10.015-4.697-14.555-3.525-31.57 3.147-39.495 15.948-1.5 2.44-2.475 4.995-3.015 7.616-1.392.317-2.76.713-4.087 1.207-7.27 2.707-14.377 7.65-18.645 14.213-4.6 7.063-5.133 16.115-1.548 23.66 3.408 7.17 11.008 12.36 18.417 14.624 4.3 1.315 8.928 2.115 13.43 1.865 1.93-.108 3.885-.35 5.783-.77 3.197 1.833 6.607 3.3 10.083 4.603 2.5.947 5.167 1.35 7.8 1.707 2.804.376 5.584.513 8.4.165 6.1-.752 11.575-3.347 16.33-7.2.58-.47 1.137-.977 1.672-1.513a18.26 18.26 0 0 0 1.184.649c4.3 2.13 9.244 3.203 13.92 4.12 9.805 1.925 19.677 1.284 29.06-2.163 4.64-1.703 9.035-3.823 12.585-7.34 3.044-3.013 5.357-6.744 7.073-10.645 2.275-5.168 2.932-10.403.78-15.765m903.24 21.83c-1.573-3.23-4.16-6.224-7.467-7.783-3.533-1.672-7.547-1.513-11.345-1.1a30.26 30.26 0 0 0-2.613.404c-1.48-2.853-3.6-5.317-6.395-7.012-3.4-2.068-7.76-3.363-11.764-3.088a17.17 17.17 0 0 0-4.307.876c-.248-.36-.5-.713-.765-1.057-1.78-2.304-3.755-4.343-6.227-5.9-2.187-1.367-4.7-2.352-7.255-2.777-10.372-1.727-21.948 3.817-26.844 13.185-.932 1.784-1.476 3.624-1.72 5.487a22.8 22.8 0 0 0-2.8 1.053c-4.953 2.265-9.677 6.1-12.33 10.907a17.14 17.14 0 0 0 .123 16.644c2.752 4.848 8.34 8.096 13.644 9.303 3.08.7 6.36 1.024 9.5.62 1.347-.175 2.703-.443 4-.835 2.332 1.12 4.793 1.967 7.295 2.708 1.805.535 3.687.684 5.557.797 1.983.12 3.937.073 5.9-.313 4.225-.84 7.936-2.933 11.068-5.876a16.05 16.05 0 0 0 1.095-1.145 13.57 13.57 0 0 0 .86.395c3.112 1.272 6.636 1.77 9.957 2.173 6.964.848 13.845-.105 20.245-2.997 3.16-1.43 6.12-3.14 8.427-5.783 1.987-2.265 3.413-4.997 4.413-7.817 1.333-3.735 1.52-7.433-.253-11.08M301.92 644.997c-.957-2.17-2.585-4.208-4.724-5.317-2.3-1.192-4.944-1.187-7.455-1.008l-1.733.2c-.907-1.92-2.243-3.596-4.043-4.784-2.197-1.448-5.033-2.4-7.68-2.33a11.34 11.34 0 0 0-2.86.47l-.48-.717c-1.116-1.563-2.367-2.956-3.96-4.037-1.407-.956-3.045-1.67-4.713-2.012-6.796-1.4-14.567 1.967-18.028 8.02a10.84 10.84 0 0 0-1.275 3.575c-.637.17-1.265.376-1.872.625-3.32 1.37-6.532 3.775-8.403 6.883-2 3.345-2.115 7.544-.335 10.98 1.695 3.264 5.297 5.545 8.765 6.475 2 .54 4.168.835 6.248.645.892-.08 1.793-.224 2.664-.45 1.5.797 3.112 1.417 4.744 1.968 1.177.4 2.413.54 3.644.664 1.304.128 2.595.147 3.9-.06 2.808-.448 5.307-1.737 7.445-3.6.26-.227.5-.47.75-.728a8.77 8.77 0 0 0 .559.283c2.02.915 4.332 1.332 6.512 1.68 4.57.732 9.13.276 13.42-1.47 2.12-.864 4.12-1.917 5.708-3.6 1.36-1.445 2.372-3.212 3.104-5.045.97-2.43 1.2-4.863.105-7.312" fill="#dcf6f7"/><path d="M543.1 770.735c-1.712-.62-2.113 4.748-.515 3.672l2.488-.093c-.29-1.685-.855-3.173-1.973-3.58" fill="#ffc942"/><path d="M545.073 774.314c.153.896.232 1.845.27 2.723 1.904 45.91 8.81 91.385 20.393 134.27 4.305 15.943 9.43 31.905 17.852 44 7.9 11.34 18.25 18.587 28.88 23.52 17.708 8.217 36.453 10.5 55.02 12.33 91.73 9.043 183.92 8.415 275.585-1.88 34.375-3.86 72.388-11.796 94.272-50.016 13.16-22.987 18.076-53.184 22.6-82.214l12.863-82.494-527.737-.236" fill="#b4e4ef"/><path d="M1064.732 826.373l1.028-6.6-1.028 6.6m3.747-24.037l1.383-8.864-1.383 8.864" fill="#e9f2f7"/><path d="M1064.732 826.373l-111.612-.345-403.966-1.247c-1.288-10.917-2.293-21.9-3.012-32.925l523.72 1.616-1.383 8.864-3.748 24.037" fill="#a6d9e8"/><path d="M866.732 759.417L700.95 530.515c-15.563-21.49-47.267 4.753-31.777 26.137l165.782 228.902c15.563 21.49 47.265-4.752 31.777-26.137" fill="#fa8f11"/><path d="M853.33 784.55L670.02 533.81c-6.172-8.228-46.288 2.057-44.23 26.745s-21.088-1.028-37.032 16.973-4.628 31.888-6.172 36-17.487-.513-26.744 15.944 1.028 28.288 0 34.975-21.987 2.572-26.424 24.688 14.763 25.716 13.907 31.888-16.8 3.085-17.83 27.26 31.89 34.46 41.147 36.003 286.69.263 286.69.263" fill="#ffc942"/><path d="M843.694 779.86l.684.653c1.94 1.867 4.392 1.28 5.84-.228L836.7 761.77a7836.01 7836.01 0 0 0-211.1-194.85c-.827 4.025-3.24 5.113-6.615 5.104 68.07 60.543 135.086 122.26 201.005 185.14-79.1-49.04-154.972-103.504-237.553-146.654.3 1.283.428 2.303.16 3.02-.607 1.616-3.435 1.887-7.203 2.6C667.7 664 751.492 726.16 840.634 779.406c1.083.645 2.137.725 3.06.453M669.4 752.282l139.454 28.505 9.05 3.908 11.632-.047c.737-1.683.4-3.66-1.793-4.607l-5.917-2.553c-.175-1.403-1.07-2.65-2.916-3.028l-7.785-1.592-130.018-56.34-71.354-31.14c-17.605-7.692-36.92-14.34-54.032-23.913.196 1.08.27 2.076.133 2.972-.288 1.863-2.124 2.887-4.716 3.875 16.65 9.35 35.412 15.85 52.584 23.353l73.232 31.957 95.02 41.23L599.9 729.694c-19.325-3.95-38.96-7.3-58.112-12.212 1.07 1.188 1.7 2.315 1.53 3.54-.27 1.947-2.04 2.972-4.37 4.223 18.7 4.833 37.885 8.116 56.773 11.977l73.66 15.057" fill="#fa8f11"/><g fill="#3a9bcc"><path d="M1062.708 760.977H549.235c-10.357 0-20.277 9.108-19.8 19.8.48 10.727 8.7 19.8 19.8 19.8h513.473c10.356 0 20.277-9.105 19.8-19.8-.48-10.727-8.7-19.8-19.8-19.8"/><path d="M835.973 778.683l2.232-1.543c1.6-1.6 3.033-3.38 4.18-5.4l2.333-5.804 41.64-123.59c4.024-11.94 8.063-23.943 10.38-36.368 1.05-5.62 1.7-11.67-.405-16.793-2.887-7.02-10.045-10.345-16.73-12.632-5.62-1.92-11.34-3.53-17.124-4.82-5.235-1.164-11.13-1.21-15.85 1.812-4.813 3.08-9.63 16.864-11.483 22.635-14.75 45.98-17.535 86.2-22.79 134.302l-3.412 31.233.076.777c.84 7.263 5.875 12.26 11.66 15.16 4.277 2.143 9.545 3.144 14.296 1.775a7.41 7.41 0 0 1 .997-.745"/></g><path d="M838.72 772.518c0 8.287-6.376 15.005-14.243 15.005s-14.243-6.72-14.243-15.005 6.377-15.005 14.243-15.005 14.243 6.72 14.243 15.005" fill="#267bad"/><path d="M942.31 989.36l.764-.085c27.728-3.113 57.824-8.88 79.912-31.052-22.088 22.173-52.184 27.94-79.912 31.052l-.764.085m95.128-50.26l.04-.07-.04.07m.092-.16l.047-.08c-.015.027-.03.055-.047.08m.084-.148l.103-.183-.103.183m.124-.22c1.136-2.023 2.21-4.1 3.227-6.225-1.016 2.127-2.09 4.203-3.227 6.225m3.24-6.256l.06-.12-.06.12m.083-.173l.077-.163-.077.163m.125-.264l.036-.075-.036.075m.096-.2a.47.47 0 0 1 .021-.045c-.008.015-.015.03-.02.045m.108-.23" fill="#e9f2f7"/><path d="M869.214 995.45l5.93-1.316c27.783-6.285 54.52-15.472 80.168-27.88 38.91-18.82 81.22-43.493 100.28-83.216-3.23 17.176-7.415 33.89-14.196 48.393l-.092.197a.47.47 0 0 0-.021.045l-.06.127-.036.075-.048.1-.077.163-.024.052-.06.12c-.004.01-.01.02-.015.03-1.016 2.127-2.09 4.203-3.227 6.225l-.02.037-.103.183c-.013.023-.024.043-.037.067l-.1.172-.04.07-.092.16c-4.23 7.39-9.065 13.65-14.36 18.964-22.088 22.173-52.184 27.94-79.912 31.052l-.764.085c-24.333 2.72-48.708 4.733-73.097 6.09" fill="#a6d9e8"/><path d="M637.725 1159.222l3.32-50.735c.228-6.412 1.947-12.14 4.008-17.98 1.26-3.32 2.404-3.55 4.695-.917 3.55 4.352 4.696 9.505 4.467 15.117l-1.717 42.145-1.375 27.6c-.228 2.063-1.03 4.353-2.176 6.3-1.5 2.75-4.8 3.55-7.673 1.947-4.123-2.175-7.9-5.04-9.963-9.504-2.863-6.3-5.497-12.713-8.132-19-.457-1.147-.8-2.405-1.26-3.436-.23-.573-.8-1.145-1.144-1.604-.344.572-.803 1.26-.917 1.947l-6.183 28.287c-.46 2.3-1.147 3.55-3.323 4.58-2.748 1.375-3.892-.343-5.496-1.488-6.643-4.696-8.475-12.14-9.62-19.47-2.75-18.095-5.04-36.417-7.444-54.628-.572-4.12-1.375-8.36-1.26-12.48 0-2.405 1.5-4.924 2.405-7.33.115-.23 1.832-.344 2.176 0 1.717 1.717 3.55 3.435 4.467 5.496 5.497 12.025 7.444 24.967 9.504 37.793l2.98 19c.115.687.46 1.26.687 1.945.46-.457 1.145-.915 1.488-1.488 1.376-3.092 2.98-6.184 4-9.505 1.03-2.977 2.06-5.268 5.84-5.497 4.008-.23 5.497 2.06 6.643 5.155l6.07 16.605c.23.687.46 1.375.803 1.947 1.03 1.72 2.176 3.32 3.32 4.924.46-1.832.917-3.78 1.26-5.6-.115-.115-.228-.115-.457-.115m34.006-27.6l1.5-32.755c0-.456.115-1.03 0-1.603l-1.03-4.924 5.496.8 17.637.8c.916.115 1.832.688 2.748.917-.8.8-1.373 2.175-2.3 2.404l-9.735.917c-4.237.343-3.893.343-3.207 4.465 1.604 9.276 2.863 18.552 4.237 27.715.343 3.092.8 6.184.916 9.277.115 2.748 1.03 3.205 3.55 2.748s5.153-.46 7.788-.46c.915 0 2.06.115 2.86.572.688.46 1.375 1.375 1.375 2.063 0 .572-1.03 1.373-1.717 1.603l-9.277 1.603c-2.633.344-3.55 1.72-3.55 4.467-.115 5.84-.572 11.683-.8 17.636-.115 4.352.23 4.696 4.58 4.24 4.237-.344 8.36-.916 12.484-1.26.8-.115 1.717.344 2.52.572-.344.688-.573 1.717-1.144 2.06-5.956 3.78-12.14 6.872-19.356 6.184-6.756-.572-11.9-4.695-13.055-11.567-1.03-6.985-1.5-14.085-1.832-21.185-.344-5.727-.115-11.452-.115-17.18-.115 0-.344-.115-.573-.115m54.166 24.513l1.032-49.13c.23-5.153 1.717-10.193 2.52-15.347.343-2.863 1.947-2.863 4.007-2.176 3.208 1.26 5.04 3.665 5.497 6.987 1.032 6.528 2.52 13.056 2.864 19.583.573 11.224.573 22.56.573 33.784 0 7.33-.46 14.544-1.032 21.76-.115 2.863 1.375 2.748 3.207 2.748l15.117-.343a19.91 19.91 0 0 1 5.155.687c.8.23 2.06 1.03 2.175 1.604.115.8-.8 1.947-1.5 2.405-1.373 1.03-2.977 2.175-4.58 2.3-7.1.687-14.2 1.717-21.3 1.375-11.34-.573-11.567-3.436-13.056-12.37-.8-4.695-.573-9.4-.688-13.856m57.5-9.506c.916-13.63 3.207-26.8 10.192-38.823 3.664-6.53 9.62-10.308 15.92-13.744.687-.46 2.176-.687 2.748-.344 2.52 1.604 4.925 3.32 6.985 5.383 1.376 1.376 1.605 3.093-1.144 3.665-8.82 1.603-13.515 7.9-17.064 15.23-5.727 12.027-5.497 24.852-3.436 37.68.917 5.497 2.176 10.88 4.008 16.033 1.604 4.58 3.665 4.58 6.413.572l8.017-12.14c.343-.573.8-1.03 1.26-1.5.457.573 1.373 1.145 1.488 1.832 1.03 4.696.115 9.16-1.947 13.63-2.176 4.8-6.3 7.215-10.88 8.817-2.06.688-5.155.46-6.873-.8-3.32-2.3-6.64-5.153-8.703-8.6-5.04-8.13-7.215-17.292-6.985-26.912m93.553-12.484c1.03-11.68-1.5-22.103-6.184-32.18-.917-1.947-2.063-3.893-3.092-5.727a78.76 78.76 0 0 0-2.635 5.383c-9.505 21.188-11.567 43.3-6.985 66.08.915 4.696 4.58 6.415 8.473 3.552 2.52-1.948 4.696-5.04 6.07-8.017 4.008-9.4 4.695-19.47 4.352-29.1zm9.276 3.093c.343 10.2-.344 18.552-4.008 26.455-1.832 4.007-4.008 7.673-8.132 9.733-1.144.573-2.176 1.604-3.205 2.52-6.415 6.184-12.14 6.07-19.927 1.603-4.8-2.748-6.76-6.756-8.017-11.108-1.832-6.07-2.52-12.368-3.093-18.783-1.832-21.76 6.185-40.196 16.95-58.063 2.06-3.55 2.98-3.664 6.53-1.832 1.832 1.03 3.78 1.717 5.6 2.405 3.78 1.373 6.3 3.893 8.132 7.56 6.412 12.94 9.963 26.57 9.16 39.5m37.676 12.37c-.343 7.1-.343 14.2-1.145 21.3-.572 5.725-7.1 10.65-12.825 10.536-.803 0-1.948-.916-2.3-1.604-1.03-3.092-2.863-6.184-2.748-9.276l3.893-60.8c.457-6.185.8-12.484 1.03-18.668 0-2.633 1.144-3.32 3.435-3.207 4.696.115 7.56 1.947 8.933 6.3 2.176 6.756 3.893 13.63 6.184 20.385 2.06 5.84 4.58 11.567 6.985 17.408.23.572.803 1.03 1.147 1.603.572-.573 1.26-1.145 1.488-1.832l12.827-32.984c.23-.8.573-1.603.688-2.52.456-5.153 1.832-6.872 5.953-7.215 4.237-.344 8.36 2.3 8.82 6.3.915 8.016 2.176 15.92 1.947 23.935-.46 19.7-1.72 39.5-2.635 59.2v1.03c-.8 6.3-5.84 9.62-11.567 7.33-1.03-.457-1.948-2.06-2.063-3.205-.57-6.07-.8-12.025-1.26-18.095-1.26-14.773.688-29.433.917-44.092 0-.916-.344-1.832-.573-2.633-.46.687-.917 1.5-1.147 2.3l-7.557 23.708c-.8 2.517-2.176 4.465-4.8 4.8-2.86.343-4.695-1.145-5.84-3.55l-5.956-14.43c-.343-.688-1.03-1.375-1.488-1.947-.23.687-.572 1.488-.572 2.176v17.75h.228m61.497-17.982l1.488-32.755c0-.456.115-1.03 0-1.603l-1.03-4.924 5.496.8 17.637.8c.916.115 1.832.688 2.748.917-.8.8-1.373 2.175-2.3 2.404l-9.735.917c-4.237.343-3.893.343-3.207 4.465 1.604 9.276 2.863 18.552 4.237 27.715.343 3.092.8 6.184.916 9.277.115 2.748 1.03 3.205 3.55 2.748s5.153-.46 7.788-.46c.915 0 2.06.115 2.86.572.688.46 1.375 1.375 1.375 2.063 0 .572-1.03 1.373-1.717 1.603l-9.277 1.603c-2.633.344-3.55 1.72-3.55 4.467-.115 5.84-.572 11.683-.8 17.636-.115 4.352.23 4.696 4.58 4.24 4.24-.344 8.36-.916 12.484-1.26.8-.115 1.717.344 2.52.572-.344.688-.573 1.717-1.144 2.06-5.956 3.78-12.14 6.872-19.356 6.184-6.756-.572-11.9-4.695-13.055-11.567-1.03-6.985-1.5-14.085-1.832-21.185-.344-5.727-.115-11.452-.115-17.18-.115 0-.344-.115-.572-.115" fill="#267bad"/><path d="M1153.12 1121.54c-.596-1.296-1.867-2.17-3.303-2.188l-27.257-.78-14.815-22.896c-.775-1.197-2.163-1.848-3.583-1.69-1.42.165-2.62 1.12-3.103 2.468l-9.164 25.683-26.352 7.01a3.77 3.77 0 0 0-2.716 2.888c-.28 1.403.257 2.84 1.388 3.713l21.593 16.653-1.475 27.23c-.077 1.428.66 2.772 1.905 3.475a3.79 3.79 0 0 0 1.187.423 3.75 3.75 0 0 0 2.773-.596l22.513-15.392 25.44 9.82c1.344.52 2.844.223 3.893-.74 1.05-.968 1.46-2.448 1.057-3.82l-7.68-26.163 17.2-21.163a3.75 3.75 0 0 0 .499-3.932" fill="#ffc942"/><path d="M1088.084 1183.588c-.22 0-.44-.02-.656-.06a3.74 3.74 0 0 0 .656.059m2.117-.655l22.513-15.392 25.44 9.82-25.44-9.82-22.513 15.392m62.92-61.392l-.057-.12.057.12m-.06-.12c-.004-.01-.008-.017-.013-.027.005.01.01.017.013.027m-.016-.032c-.004-.007-.008-.015-.01-.023.003.008.007.016.01.023m-.016-.03c-.003-.007-.007-.013-.01-.02l.01.02m-.05-.092" fill="#e9f2f7"/><path d="M1088.084 1183.588a3.74 3.74 0 0 1-.656-.059 3.78 3.78 0 0 1-1.001-.339l8.633-7c3.987-3.143 8.276-7.452 13.24-8.947 1.016-.307 2.015-.425 3.007-.425 1.825 0 3.63.4 5.476.777 3.04.62 6.105 1.12 9.19 1.47 2.68.304 5.372.51 8.07.576l.307.001c-.12-.807-.156-1.715-.267-2.227-1.16-5.356-2.912-10.56-5.004-15.62-2.325-5.627-.62-9.02 3.696-12.905 5.415-4.877 16.57-11.14 17.325-19.516 1.216.11 2.285.827 2.88 1.885.005.008.01.016.013.023.008.015.01.02.013.025.01.02.012.023.015.027s.007.012.01.02c.008.016.012.024.016.03a.35.35 0 0 1 .016.032c.02.04.04.08.06.12.23.497.34 1.027.343 1.553.003.85-.285 1.693-.84 2.38l-17.2 21.163 7.68 26.163c.003.012.007.023.01.035.005.02.008.027.01.035l.01.036c.188.72.15 1.457-.076 2.137a6.1 6.1 0 0 1-1.611 2.019c-.593.36-1.27.552-1.956.552a3.7 3.7 0 0 1-1.276-.228c-.01-.004-.015-.005-.02-.008l-.04-.016-25.44-9.82-22.513 15.392a3.75 3.75 0 0 1-2.117.655" fill="#e9c14d"/><path d="M543.383 1111.58c-.596-1.297-1.867-2.17-3.304-2.188l-27.257-.78-14.813-22.896a3.76 3.76 0 0 0-3.584-1.688c-1.42.165-2.62 1.12-3.103 2.467l-9.163 25.683-26.352 7.01a3.76 3.76 0 0 0-1.329 6.601l21.595 16.652-1.476 27.23c-.077 1.427.66 2.772 1.907 3.475.375.21.777.35 1.185.424.95.17 1.95-.035 2.775-.596l22.512-15.393 25.44 9.82a3.74 3.74 0 0 0 3.893-.741 3.75 3.75 0 0 0 1.056-3.819l-7.68-26.164 17.2-21.163a3.75 3.75 0 0 0 .499-3.931" fill="#ffc942"/><path d="M478.344 1173.625a3.75 3.75 0 0 1-.656-.057 3.75 3.75 0 0 0 .656.057c.74 0 1.483-.22 2.12-.653l22.512-15.393 25.44 9.82-25.44-9.82-22.512 15.393c-.636.433-1.377.653-2.12.653m65.04-62.045l-.135-.267.135.267m-.136-.268l-.013-.024c.005.008.01.016.013.024m-.035-.06" fill="#e9f2f7"/><path d="M478.344 1173.625a3.75 3.75 0 0 1-.656-.057c-.008-.003-.017-.004-.027-.005a3.79 3.79 0 0 1-.973-.335l8.632-7c3.987-3.143 8.276-7.452 13.24-8.947 1.016-.305 2.015-.424 3.008-.424 1.825 0 3.628.4 5.475.777 3.04.62 6.104 1.12 9.19 1.47 2.68.304 5.372.51 8.07.576l.305.003c-.12-.808-.155-1.716-.265-2.227-1.16-5.357-2.913-10.56-5.004-15.62-2.325-5.627-.62-9.02 3.695-12.905 5.416-4.88 16.57-11.14 17.327-19.516 1.192.11 2.247.8 2.848 1.83.005.01.008.015.01.02.01.017.012.02.013.023.004.008.01.016.013.024a3.37 3.37 0 0 1 .136.268c.228.496.34 1.025.343 1.552.001.85-.285 1.693-.84 2.38l-17.2 21.163 7.68 26.164c.004.01.007.023.01.033.005.02.007.028.01.035.005.02.007.028.01.036.19.72.15 1.46-.076 2.14-.395.79-.935 1.467-1.61 2.017-.592.36-1.268.552-1.955.552a3.68 3.68 0 0 1-1.256-.221l-.02-.007-.06-.024-25.44-9.82-22.512 15.393c-.636.433-1.377.653-2.12.653" fill="#e9c14d"/><defs ><path id="B" d="M326.763 458.307c-14.948 0-14.972 23.23 0 23.23 14.948 0 14.975-23.23 0-23.23"/><path id="C" d="M637.698 360.915c-11.5 0-11.517 17.87 0 17.87 11.5 0 11.52-17.87 0-17.87"/></defs></svg>